<?xml version="1.0" encoding="UTF-8"?>
<svg version="1.1" xmlns="http://www.w3.org/2000/svg" width="500" height="500">
<path d="M0 0 C165 0 330 0 500 0 C500 165 500 330 500 500 C335 500 170 500 0 500 C0 335 0 170 0 0 Z " fill="#FED530" transform="translate(0,0)"/>
<path d="M0 0 C165 0 330 0 500 0 C500 10.23 500 20.46 500 31 C335 31 170 31 0 31 C0 20.77 0 10.54 0 0 Z " fill="#2D2C2F" transform="translate(0,469)"/>
<path d="M0 0 C165 0 330 0 500 0 C500 10.23 500 20.46 500 31 C335 31 170 31 0 31 C0 20.77 0 10.54 0 0 Z " fill="#020202" transform="translate(0,0)"/>
<path d="M0 0 C165 0 330 0 500 0 C500 4.62 500 9.24 500 14 C335 14 170 14 0 14 C0 9.38 0 4.76 0 0 Z " fill="#111212" transform="translate(0,469)"/>
<path d="M0 0 C165 0 330 0 500 0 C500 4.29 500 8.58 500 13 C335 13 170 13 0 13 C0 8.71 0 4.42 0 0 Z " fill="#252728" transform="translate(0,18)"/>
<path d="M0 0 C2.21484375 0.83984375 2.21484375 0.83984375 4 2 C5.34650987 6.03952962 5.44248839 9.773473 5 14 C3.625 16.5625 3.625 16.5625 2 18 C1.34 18 0.68 18 0 18 C0 18.66 0 19.32 0 20 C0.99 20.33 1.98 20.66 3 21 C2.125 25.75 2.125 25.75 1 28 C1.66 28 2.32 28 3 28 C3 29.32 3 30.64 3 32 C2.01 32 1.02 32 0 32 C0 34.64 0 37.28 0 40 C0.515625 39.7525 1.03125 39.505 1.5625 39.25 C4.70616967 38.92757234 6.06195041 40.17465334 8.65234375 41.80859375 C13.72840185 44.38462989 19.53401409 45.54240376 25 47 C25 52.61 25 58.22 25 64 C26.98 64 28.96 64 31 64 C31 64.66 31 65.32 31 66 C28.36 66 25.72 66 23 66 C23 61.71 23 57.42 23 53 C22.34 53 21.68 53 21 53 C21.20163794 55.58818848 21.43498012 58.16669925 21.6875 60.75 C21.74099609 61.47960937 21.79449219 62.20921875 21.84960938 62.9609375 C22.26335909 66.91854346 22.69094669 68.69889511 25.58203125 71.515625 C26.37996094 72.00546875 27.17789063 72.4953125 28 73 C26.68 73 25.36 73 24 73 C23.67 74.98 23.34 76.96 23 79 C22.34 79 21.68 79 21 79 C20.938125 79.7425 20.87625 80.485 20.8125 81.25 C19.74571489 84.86065729 18.0175693 85.84459336 15 88 C14.46375 88.5775 13.9275 89.155 13.375 89.75 C12 91 12 91 9 91 C9 91.66 9 92.32 9 93 C6.49607205 94.02201141 4.65581221 94.76612221 2 95 C0.08988479 94.14779475 -1.49374251 93.06674261 -3.22265625 91.89453125 C-6.22061089 90.38567056 -8.8675605 91.23287196 -12 92 C-12 92.99 -12 93.98 -12 95 C-12.99 95 -13.98 95 -15 95 C-15 95.66 -15 96.32 -15 97 C-25.24941843 97.51822902 -31.96439633 97.36418984 -39.8125 90.5625 C-44.37015798 85.22352923 -46.13179348 81.01766428 -46.09765625 74.01953125 C-46.09443359 72.85615234 -46.09121094 71.69277344 -46.08789062 70.49414062 C-46.07951172 69.27919922 -46.07113281 68.06425781 -46.0625 66.8125 C-46.05798828 65.58595703 -46.05347656 64.35941406 -46.04882812 63.09570312 C-46.03703065 60.06375332 -46.02056921 57.03190094 -46 54 C-44.515 53.505 -44.515 53.505 -43 53 C-42.49440092 54.43554025 -41.9957251 55.8735202 -41.5 57.3125 C-41.08234375 58.51326172 -41.08234375 58.51326172 -40.65625 59.73828125 C-40 62 -40 62 -40 65 C-39.34 65 -38.68 65 -38 65 C-38 65.99 -38 66.98 -38 68 C-37.34 68 -36.68 68 -36 68 C-36 68.66 -36 69.32 -36 70 C-35.34 70 -34.68 70 -34 70 C-34 70.66 -34 71.32 -34 72 C-35.65 72 -37.3 72 -39 72 C-37.88860057 76.85840322 -36.80317767 80.91104051 -32.75 84.0625 C-28.50893181 86.64634406 -24.81555486 86.65567716 -20.00390625 85.53515625 C-18.32193924 85.07151544 -16.65852072 84.54155779 -15 84 C-15.33 83.236875 -15.66 82.47375 -16 81.6875 C-17 79 -17 79 -17 76 C-17.66 75.67 -18.32 75.34 -19 75 C-19.02904864 71.08334892 -19.04681517 67.1667256 -19.0625 63.25 C-19.07087891 62.13882813 -19.07925781 61.02765625 -19.08789062 59.8828125 C-19.09272461 58.27792969 -19.09272461 58.27792969 -19.09765625 56.640625 C-19.10289307 55.65610352 -19.10812988 54.67158203 -19.11352539 53.65722656 C-19.01159103 51.27130486 -18.68303357 49.27835419 -18 47 C-19.32 47 -20.64 47 -22 47 C-23.59138085 42.82262526 -24.21278058 39.46839215 -24 35 C-25.98 35 -27.96 35 -30 35 C-30 33.68 -30 32.36 -30 31 C-27.69 31.33 -25.38 31.66 -23 32 C-23 34.31 -23 36.62 -23 39 C-22.36191406 38.98839844 -21.72382813 38.97679687 -21.06640625 38.96484375 C-20.24011719 38.95582031 -19.41382813 38.94679687 -18.5625 38.9375 C-17.73878906 38.92589844 -16.91507813 38.91429687 -16.06640625 38.90234375 C-14 39 -14 39 -13 40 C-12.95936168 41.66617115 -12.957279 43.33388095 -13 45 C-12.01 45 -11.02 45 -10 45 C-10.14166357 43.08302063 -10.28849584 41.16642277 -10.4375 39.25 C-10.51871094 38.18265625 -10.59992188 37.1153125 -10.68359375 36.015625 C-10.91804692 33.10317366 -10.91804692 33.10317366 -11.56640625 30.734375 C-12.11450071 28.54199715 -11.54233562 27.1693425 -11 25 C-11.29369827 23.65737935 -11.6278958 22.32303717 -12 21 C-12 19.68 -12 18.36 -12 17 C-12.66 16.34 -13.32 15.68 -14 15 C-14.83031408 10.06181625 -14.71912477 6.15987866 -12.0625 1.875 C-8.00049633 -0.61194102 -4.65774236 -0.79156623 0 0 Z " fill="#687988" transform="translate(262,145)"/>
<path d="M0 0 C165 0 330 0 500 0 C500 1.98 500 3.96 500 6 C335 6 170 6 0 6 C0 4.02 0 2.04 0 0 Z " fill="#030404" transform="translate(0,25)"/>
<path d="M0 0 C9.24 0 18.48 0 28 0 C28 1.32 28 2.64 28 4 C29.32 4 30.64 4 32 4 C32 5.32 32 6.64 32 8 C32.99 8 33.98 8 35 8 C35 10.31 35 12.62 35 15 C36.32 15 37.64 15 39 15 C39 22.92 39 30.84 39 39 C37.68 39 36.36 39 35 39 C35 36.69 35 34.38 35 32 C32.69 32 30.38 32 28 32 C28 29.69 28 27.38 28 25 C18.76 25 9.52 25 0 25 C0 27.64 0 30.28 0 33 C-2.31 33 -4.62 33 -7 33 C-7 34.98 -7 36.96 -7 39 C-4.69 39 -2.38 39 0 39 C0 40.32 0 41.64 0 43 C0.99 43 1.98 43 3 43 C3 40.69 3 38.38 3 36 C4.32 36 5.64 36 7 36 C7.125 42.75 7.125 42.75 6 45 C14.25 45.33 22.5 45.66 31 46 C31 44.02 31 42.04 31 40 C32.32 40 33.64 40 35 40 C35 42.31 35 44.62 35 47 C36.32 47 37.64 47 39 47 C39 50.3 39 53.6 39 57 C39.99 57 40.98 57 42 57 C42 59.31 42 61.62 42 64 C41.01 64 40.02 64 39 64 C39 65.32 39 66.64 39 68 C36.69 68 34.38 68 32 68 C32 71.3 32 74.6 32 78 C30.68 78 29.36 78 28 78 C28 79.32 28 80.64 28 82 C25.69 82 23.38 82 21 82 C21 80.68 21 79.36 21 78 C19.68 78 18.36 78 17 78 C17 77.01 17 76.02 17 75 C15.02 75 13.04 75 11 75 C11 75.99 11 76.98 11 78 C9.68 78 8.36 78 7 78 C7 79.32 7 80.64 7 82 C4.69 82 2.38 82 0 82 C0 80.68 0 79.36 0 78 C-1.32 78 -2.64 78 -4 78 C-4 73.38 -4 68.76 -4 64 C-5.32 64 -6.64 64 -8 64 C-8 63.01 -8 62.02 -8 61 C-8.99 61 -9.98 61 -11 61 C-11 56.05 -11 51.1 -11 46 C-10.01 46 -9.02 46 -8 46 C-8 44.02 -8 42.04 -8 40 C-8.99 40 -9.98 40 -11 40 C-11 31.42 -11 22.84 -11 14 C-10.01 14 -9.02 14 -8 14 C-8 12.02 -8 10.04 -8 8 C-6.68 7.67 -5.36 7.34 -4 7 C-4 6.01 -4 5.02 -4 4 C-2.68 4 -1.36 4 0 4 C0 2.68 0 1.36 0 0 Z " fill="#40435A" transform="translate(136,223)"/>
<path d="M0 0 C165 0 330 0 500 0 C500 1.65 500 3.3 500 5 C335 5.33 170 5.66 0 6 C0 4.02 0 2.04 0 0 Z " fill="#CEB038" transform="translate(0,31)"/>
<path d="M0 0 C164.67 0 329.34 0 499 0 C499 1.65 499 3.3 499 5 C334 5 169 5 -1 5 C-0.67 3.35 -0.34 1.7 0 0 Z " fill="#0E0E0F" transform="translate(1,495)"/>
<path d="M0 0 C165 0 330 0 500 0 C500 0.99 500 1.98 500 3 C335 3.33 170 3.66 0 4 C0 2.68 0 1.36 0 0 Z " fill="#1F1E20" transform="translate(0,492)"/>
<path d="M0 0 C165 0 330 0 500 0 C500 0.99 500 1.98 500 3 C335 3 170 3 0 3 C0 2.01 0 1.02 0 0 Z " fill="#B79D34" transform="translate(0,466)"/>
<path d="M0 0 C9.24 0 18.48 0 28 0 C28 1.32 28 2.64 28 4 C29.32 4 30.64 4 32 4 C32 5.32 32 6.64 32 8 C32.99 8 33.98 8 35 8 C35 10.31 35 12.62 35 15 C36.32 15 37.64 15 39 15 C39 22.92 39 30.84 39 39 C37.68 39 36.36 39 35 39 C35 36.69 35 34.38 35 32 C32.69 32 30.38 32 28 32 C28 29.69 28 27.38 28 25 C18.76 25 9.52 25 0 25 C0 27.31 0 29.62 0 32 C-2.64 32 -5.28 32 -8 32 C-8 34.31 -8 36.62 -8 39 C-8.66 39 -9.32 39 -10 39 C-10 31.08 -10 23.16 -10 15 C-9.01 15 -8.02 15 -7 15 C-7 12.36 -7 9.72 -7 7 C-6.01 7 -5.02 7 -4 7 C-4 6.01 -4 5.02 -4 4 C-2.68 4 -1.36 4 0 4 C0 2.68 0 1.36 0 0 Z " fill="#5A575D" transform="translate(136,223)"/>
<path d="M0 0 C2.34274295 0.97942405 4.67050256 1.98908602 7 3 C8.32776768 3.35485473 9.6602395 3.69351884 11 4 C13.16932029 25.64604381 13.16932029 25.64604381 6.125 34.3046875 C2.73111127 37.9171221 -0.1508484 40.60368718 -5 42 C-10.78753062 41.43001592 -15.64608737 36.49642975 -19.375 32.375 C-25.43831997 23.51322466 -23.9392593 14.28850186 -23 4 C-22.34773437 3.81824219 -21.69546875 3.63648438 -21.0234375 3.44921875 C-17.01351727 2.29592311 -13.4574306 1.2601076 -9.8125 -0.8125 C-5.86551926 -2.47900298 -3.93507947 -1.5188026 0 0 Z " fill="#B03A35" transform="translate(271,192)"/>
<path d="M0 0 C3.3 0 6.6 0 10 0 C9.67 1.65 9.34 3.3 9 5 C10.32 5 11.64 5 13 5 C13 6.65 13 8.3 13 10 C14.32 10.33 15.64 10.66 17 11 C16.38605929 14.27300996 15.75695364 17.54292425 15.125 20.8125 C14.86396484 22.2056543 14.86396484 22.2056543 14.59765625 23.62695312 C14.33662109 24.9659668 14.33662109 24.9659668 14.0703125 26.33203125 C13.91320801 27.15421143 13.75610352 27.9763916 13.59423828 28.82348633 C13 31 13 31 11 34 C8.375 34.1875 8.375 34.1875 6 34 C5.67 35.32 5.34 36.64 5 38 C3.02 38.495 3.02 38.495 1 39 C0.67 40.32 0.34 41.64 0 43 C-3.3 43 -6.6 43 -10 43 C-10 41.68 -10 40.36 -10 39 C-11.32 39 -12.64 39 -14 39 C-14 37.35 -14 35.7 -14 34 C-14.99 34 -15.98 34 -17 34 C-16.41640925 25.68383188 -14.26200586 17.98540674 -12 10 C-10.35 10 -8.7 10 -7 10 C-6.67 8.35 -6.34 6.7 -6 5 C-4.35 5 -2.7 5 -1 5 C-0.67 3.35 -0.34 1.7 0 0 Z " fill="#1B1605" transform="translate(230,261)"/>
<path d="M0 0 C3.3 0 6.6 0 10 0 C10 1.65 10 3.3 10 5 C11.32 5 12.64 5 14 5 C13.67 6.65 13.34 8.3 13 10 C14.32 10 15.64 10 17 10 C16.31697126 15.41390145 15.22293698 20.63677579 13.9375 25.9375 C13.75123047 26.71673828 13.56496094 27.49597656 13.37304688 28.29882812 C12.91818991 30.19989697 12.4594938 32.10004657 12 34 C10.35 34 8.7 34 7 34 C6.67 35.32 6.34 36.64 6 38 C4.35 38 2.7 38 1 38 C0.67 39.65 0.34 41.3 0 43 C-3.3 43 -6.6 43 -10 43 C-10 41.68 -10 40.36 -10 39 C-11.32 39 -12.64 39 -14 39 C-13.67 37.35 -13.34 35.7 -13 34 C-14.32 34 -15.64 34 -17 34 C-15.77409993 25.86579246 -14.1142355 17.94952546 -12 10 C-10.35 9.67 -8.7 9.34 -7 9 C-6.67 7.68 -6.34 6.36 -6 5 C-4.35 4.67 -2.7 4.34 -1 4 C-0.67 2.68 -0.34 1.36 0 0 Z " fill="#171304" transform="translate(265,261)"/>
<path d="M0 0 C1.39456452 0.00667256 2.78911118 0.01863093 4.18359375 0.03515625 C4.89451172 0.03966797 5.60542969 0.04417969 6.33789062 0.04882812 C8.09899388 0.06064761 9.86005411 0.07858362 11.62109375 0.09765625 C11.29109375 1.74765625 10.96109375 3.39765625 10.62109375 5.09765625 C11.94109375 5.09765625 13.26109375 5.09765625 14.62109375 5.09765625 C14.29109375 6.74765625 13.96109375 8.39765625 13.62109375 10.09765625 C14.94109375 10.09765625 16.26109375 10.09765625 17.62109375 10.09765625 C17.01605521 15.75317435 15.99923672 21.09979616 14.55859375 26.59765625 C14.37232422 27.3246875 14.18605469 28.05171875 13.99414062 28.80078125 C13.5408292 30.56753349 13.08159355 32.332764 12.62109375 34.09765625 C10.14609375 34.59265625 10.14609375 34.59265625 7.62109375 35.09765625 C7.29109375 36.08765625 6.96109375 37.07765625 6.62109375 38.09765625 C4.97109375 38.09765625 3.32109375 38.09765625 1.62109375 38.09765625 C1.12609375 40.57265625 1.12609375 40.57265625 0.62109375 43.09765625 C-3.99890625 43.09765625 -8.61890625 43.09765625 -13.37890625 43.09765625 C-12.78898546 34.98624533 -10.88364882 27.24471996 -8.94042969 19.37451172 C-8.37377824 17.0768633 -7.81716789 14.77694194 -7.26171875 12.4765625 C-6.90553104 11.01678468 -6.54878108 9.5571439 -6.19140625 8.09765625 C-5.94136841 7.06499634 -5.94136841 7.06499634 -5.6862793 6.01147461 C-4.22350633 0.12206666 -4.22350633 0.12206666 0 0 Z " fill="#151203" transform="translate(356.37890625,260.90234375)"/>
<path d="M0 0 C2.21484375 0.83984375 2.21484375 0.83984375 4 2 C5.34650987 6.03952962 5.44248839 9.773473 5 14 C3.625 16.5625 3.625 16.5625 2 18 C1.34 18 0.68 18 0 18 C0 18.66 0 19.32 0 20 C0.99 20.33 1.98 20.66 3 21 C2.125 25.75 2.125 25.75 1 28 C1.66 28 2.32 28 3 28 C3 29.32 3 30.64 3 32 C2.01 32 1.02 32 0 32 C0 34.64 0 37.28 0 40 C0.515625 39.7525 1.03125 39.505 1.5625 39.25 C4.70616967 38.92757234 6.06195041 40.17465334 8.65234375 41.80859375 C13.72840185 44.38462989 19.53401409 45.54240376 25 47 C25 52.61 25 58.22 25 64 C26.65 64 28.3 64 30 64 C30 64.33 30 64.66 30 65 C28.02 65 26.04 65 24 65 C24 59.39 24 53.78 24 48 C22.55625 47.938125 21.1125 47.87625 19.625 47.8125 C13.67688112 47.25167736 9.12035488 44.95237484 4 42 C4 42.66 4 43.32 4 44 C3.34 44 2.68 44 2 44 C2 43.34 2 42.68 2 42 C1.45730469 42.28875 0.91460937 42.5775 0.35546875 42.875 C-0.35996094 43.24625 -1.07539063 43.6175 -1.8125 44 C-2.52019531 44.37125 -3.22789062 44.7425 -3.95703125 45.125 C-6 46 -6 46 -9 46 C-9 41.38 -9 36.76 -9 32 C-9.99 32 -10.98 32 -12 32 C-11.814375 30.9275 -11.62875 29.855 -11.4375 28.75 C-11.05539869 25.4748459 -11.06744181 24.00490973 -12 21 C-12 19.68 -12 18.36 -12 17 C-12.66 16.34 -13.32 15.68 -14 15 C-14.83031408 10.06181625 -14.71912477 6.15987866 -12.0625 1.875 C-8.00049633 -0.61194102 -4.65774236 -0.79156623 0 0 Z " fill="#3B5967" transform="translate(262,145)"/>
<path d="M0 0 C9.24 0 18.48 0 28 0 C28 2.31 28 4.62 28 7 C30.31 7 32.62 7 35 7 C35 9.31 35 11.62 35 14 C34.01 14.33 33.02 14.66 32 15 C31.67 16.98 31.34 18.96 31 21 C19.78 21 8.56 21 -3 21 C-3 20.67 -3 20.34 -3 20 C-1.906875 19.855625 -0.81375 19.71125 0.3125 19.5625 C3.93122987 19.11711896 3.93122987 19.11711896 7 18 C7 15.69 7 13.38 7 11 C5.68 11 4.36 11 3 11 C3 13.31 3 15.62 3 18 C2.01 18 1.02 18 0 18 C0 16.68 0 15.36 0 14 C-2.31 14 -4.62 14 -7 14 C-7 12.02 -7 10.04 -7 8 C-4.69 8 -2.38 8 0 8 C0 5.36 0 2.72 0 0 Z " fill="#FCC8AF" transform="translate(136,248)"/>
<path d="M0 0 C0.66 0 1.32 0 2 0 C2.50559908 1.43554025 3.0042749 2.8735202 3.5 4.3125 C3.7784375 5.11300781 4.056875 5.91351563 4.34375 6.73828125 C5 9 5 9 5 12 C5.66 12 6.32 12 7 12 C7 12.99 7 13.98 7 15 C7.66 15 8.32 15 9 15 C9 15.66 9 16.32 9 17 C9.66 17 10.32 17 11 17 C11 17.66 11 18.32 11 19 C9.35 19 7.7 19 6 19 C7.11139943 23.85840322 8.19682233 27.91104051 12.25 31.0625 C16.49106819 33.64634406 20.18444514 33.65567716 24.99609375 32.53515625 C26.67806076 32.07151544 28.34147928 31.54155779 30 31 C29.67 30.236875 29.34 29.47375 29 28.6875 C28 26 28 26 28 23 C27.34 22.67 26.68 22.34 26 22 C26.33 19.69 26.66 17.38 27 15 C28.38919311 17.56466419 29.3839541 20.12101727 30.3125 22.875 C32.13568725 27.8104968 34.68889149 31.62582737 39.3125 34.375 C39.869375 34.58125 40.42625 34.7875 41 35 C41 35.66 41 36.32 41 37 C41.95712891 37.18175781 41.95712891 37.18175781 42.93359375 37.3671875 C43.75988281 37.53476563 44.58617187 37.70234375 45.4375 37.875 C46.26121094 38.03742188 47.08492188 38.19984375 47.93359375 38.3671875 C48.61550781 38.57601562 49.29742187 38.78484375 50 39 C50.33 39.66 50.66 40.32 51 41 C49.4375 41.75 49.4375 41.75 47 42 C45.28670314 40.96555661 43.5745957 39.92864057 41.8828125 38.859375 C38.80551398 37.45479891 36.17851994 38.22158695 33 39 C33 39.99 33 40.98 33 42 C32.01 42 31.02 42 30 42 C30 42.66 30 43.32 30 44 C19.75058157 44.51822902 13.03560367 44.36418984 5.1875 37.5625 C0.64714939 32.24380358 -1.12544455 28.02582127 -1.1328125 21.0546875 C-1.13410156 19.89582031 -1.13539063 18.73695313 -1.13671875 17.54296875 C-1.13285156 16.33253906 -1.12898437 15.12210938 -1.125 13.875 C-1.12886719 12.65683594 -1.13273438 11.43867188 -1.13671875 10.18359375 C-1.13542969 9.02730469 -1.13414062 7.87101563 -1.1328125 6.6796875 C-1.13168457 5.61476074 -1.13055664 4.54983398 -1.12939453 3.45263672 C-1 1 -1 1 0 0 Z " fill="#44606D" transform="translate(217,198)"/>
<path d="M0 0 C1.98 0 3.96 0 6 0 C5.01 4.62 4.02 9.24 3 14 C6.96 14 10.92 14 15 14 C15.99 9.38 16.98 4.76 18 0 C19.98 0 21.96 0 24 0 C21.10346541 14.44859606 17.6577789 28.72623252 14 43 C12.02 43 10.04 43 8 43 C9.30149113 35.22167657 11.0238544 27.63510798 13 20 C8.71 20 4.42 20 0 20 C-0.1546875 21.794375 -0.1546875 21.794375 -0.3125 23.625 C-1.0258185 30.18123621 -2.54689876 36.57528192 -4 43 C-5.98 43 -7.96 43 -10 43 C-9.39530267 35.74363203 -7.84497357 29.03193876 -6 22 C-5.65912559 20.62948434 -5.32070099 19.25835768 -4.984375 17.88671875 C-4.81075439 17.18039307 -4.63713379 16.47406738 -4.45825195 15.74633789 C-4.1196279 14.36691717 -3.78216203 12.98721145 -3.44604492 11.60717773 C-2.4706642 7.66853992 -1.3345428 3.83162066 0 0 Z " fill="#141003" transform="translate(190,261)"/>
<path d="M0 0 C0.33 0 0.66 0 1 0 C1 2.31 1 4.62 1 7 C0.01 7 -0.98 7 -2 7 C-2 14.92 -2 22.84 -2 31 C-1.34 31 -0.68 31 0 31 C0 28.69 0 26.38 0 24 C2.64 24 5.28 24 8 24 C8 24.33 8 24.66 8 25 C5.69 25 3.38 25 1 25 C1 26.98 1 28.96 1 31 C3.31 31 5.62 31 8 31 C8 32.32 8 33.64 8 35 C8.99 35 9.98 35 11 35 C11 32.69 11 30.38 11 28 C12.32 28 13.64 28 15 28 C15.125 34.75 15.125 34.75 14 37 C22.25 37.33 30.5 37.66 39 38 C39 36.02 39 34.04 39 32 C39.33 32 39.66 32 40 32 C40 34.31 40 36.62 40 39 C28.12 39 16.24 39 4 39 C4 39.99 4 40.98 4 42 C6.31 42 8.62 42 11 42 C11 44.31 11 46.62 11 49 C13.31 49 15.62 49 18 49 C18 51.64 18 54.28 18 57 C16.02 57 14.04 57 12 57 C12 57.99 12 58.98 12 60 C12.99 60 13.98 60 15 60 C15 61.98 15 63.96 15 66 C12.69 66 10.38 66 8 66 C8 67.32 8 68.64 8 70 C6.68 70 5.36 70 4 70 C4 65.38 4 60.76 4 56 C2.68 56 1.36 56 0 56 C0 55.01 0 54.02 0 53 C-0.99 53 -1.98 53 -3 53 C-3 48.05 -3 43.1 -3 38 C-2.01 38 -1.02 38 0 38 C0 36.02 0 34.04 0 32 C-0.99 32 -1.98 32 -3 32 C-3 23.42 -3 14.84 -3 6 C-2.01 6 -1.02 6 0 6 C0 4.02 0 2.04 0 0 Z " fill="#575972" transform="translate(128,231)"/>
<path d="M0 0 C1.98 0 3.96 0 6 0 C5.48594831 4.96916636 4.76615118 9.29026351 3 14 C5.64 14 8.28 14 11 14 C11.33 12.35 11.66 10.7 12 9 C13.32 9 14.64 9 16 9 C16.99 6.03 17.98 3.06 19 0 C20.65 0 22.3 0 24 0 C23.125 7.625 23.125 7.625 22 11 C20.35 11 18.7 11 17 11 C17 12.32 17 13.64 17 15 C15.35 15.33 13.7 15.66 12 16 C11.67 16.99 11.34 17.98 11 19 C12.32 19 13.64 19 15 19 C14.34 21.97 13.68 24.94 13 28 C14.32 28 15.64 28 17 28 C16.22095672 38.55808656 16.22095672 38.55808656 14 43 C12.35 43 10.7 43 9 43 C9.14133499 41.22880197 9.28823208 39.45804713 9.4375 37.6875 C9.51871094 36.70136719 9.59992188 35.71523438 9.68359375 34.69921875 C10 32 10 32 11 29 C9.68 29 8.36 29 7 29 C7.66 26.03 8.32 23.06 9 20 C6.36 20 3.72 20 1 20 C0.87753906 20.80695313 0.75507813 21.61390625 0.62890625 22.4453125 C-0.11178596 26.6318337 -1.07127467 30.74197565 -2.0625 34.875 C-2.24876953 35.65875 -2.43503906 36.4425 -2.62695312 37.25 C-3.08284715 39.16709281 -3.54117527 41.0836065 -4 43 C-5.98 43 -7.96 43 -10 43 C-8.63034905 33.38271806 -6.3571885 24.12304015 -3.875 14.75 C-3.49821192 13.31132511 -3.12190684 11.87252363 -2.74609375 10.43359375 C-1.83627615 6.95425644 -0.91999222 3.47666274 0 0 Z " fill="#141103" transform="translate(291,261)"/>
<path d="M0 0 C7.92 0 15.84 0 24 0 C23.67 1.98 23.34 3.96 23 6 C16.73 6 10.46 6 4 6 C3.67 8.64 3.34 11.28 3 14 C5.64 14 8.28 14 11 14 C11 15.98 11 17.96 11 20 C7.7 20 4.4 20 1 20 C-0.32 25.61 -1.64 31.22 -3 37 C2.94 37 8.88 37 15 37 C14.67 38.98 14.34 40.96 14 43 C6.08 43 -1.84 43 -10 43 C-9.31081063 37.48648501 -8.53250738 32.64362917 -7.1875 27.32421875 C-7.01371826 26.63237991 -6.83993652 25.94054108 -6.66088867 25.22773743 C-6.11168666 23.04651209 -5.55582185 20.86704662 -5 18.6875 C-4.62719429 17.2077855 -4.25479502 15.72796853 -3.8828125 14.24804688 C-1.18154158 3.54462473 -1.18154158 3.54462473 0 0 Z " fill="#141103" transform="translate(322,261)"/>
<path d="M0 0 C2.31 0 4.62 0 7 0 C7 1.65 7 3.3 7 5 C8.32 5 9.64 5 11 5 C10.35706295 8.10477385 9.71015082 11.2087063 9.0625 14.3125 C8.88009766 15.19357422 8.69769531 16.07464844 8.50976562 16.98242188 C8.33251953 17.82998047 8.15527344 18.67753906 7.97265625 19.55078125 C7.81031494 20.33106689 7.64797363 21.11135254 7.48071289 21.9152832 C7 24 7 24 6 27 C4.35 27 2.7 27 1 27 C0.67 28.32 0.34 29.64 0 31 C-2.64 31 -5.28 31 -8 31 C-7.67 29.68 -7.34 28.36 -7 27 C-8.32 27 -9.64 27 -11 27 C-10.65259661 19.14868332 -8.71548094 12.35074375 -6 5 C-4.35 5 -2.7 5 -1 5 C-0.67 3.35 -0.34 1.7 0 0 Z " fill="#F5CD2E" transform="translate(230,267)"/>
<path d="M0 0 C2.64 0 5.28 0 8 0 C7.67 1.65 7.34 3.3 7 5 C8.32 5 9.64 5 11 5 C10.3900874 9.98844309 9.36525565 14.60155346 7.9375 19.4375 C7.57527344 20.67371094 7.21304687 21.90992188 6.83984375 23.18359375 C6.56269531 24.11300781 6.28554688 25.04242188 6 26 C4.35 26 2.7 26 1 26 C0.67 27.65 0.34 29.3 0 31 C-2.31 31 -4.62 31 -7 31 C-7 29.68 -7 28.36 -7 27 C-8.32 27 -9.64 27 -11 27 C-10.38955672 19.36945905 -8.20378179 12.29810526 -6 5 C-4.35 5 -2.7 5 -1 5 C-0.67 3.35 -0.34 1.7 0 0 Z " fill="#F6CE2E" transform="translate(265,267)"/>
<path d="M0 0 C1.32 0 2.64 0 4 0 C4 2.64 4 5.28 4 8 C5.32 8 6.64 8 8 8 C8.33 8.66 8.66 9.32 9 10 C9.99 10.33 10.98 10.66 12 11 C12 11.66 12 12.32 12 13 C13.98 13 15.96 13 18 13 C18 10.03 18 7.06 18 4 C18.99 4 19.98 4 21 4 C21 4.99 21 5.98 21 7 C23.64 7 26.28 7 29 7 C29 8.32 29 9.64 29 11 C26.69 11 24.38 11 22 11 C22 14.3 22 17.6 22 21 C20.68 21 19.36 21 18 21 C18 22.32 18 23.64 18 25 C15.69 25 13.38 25 11 25 C11 23.68 11 22.36 11 21 C9.68 21 8.36 21 7 21 C7 20.01 7 19.02 7 18 C5.02 18 3.04 18 1 18 C1 18.99 1 19.98 1 21 C-0.32 21 -1.64 21 -3 21 C-3 22.32 -3 23.64 -3 25 C-5.31 25 -7.62 25 -10 25 C-10 22.36 -10 19.72 -10 17 C-7.69 17 -5.38 17 -3 17 C-3 15.02 -3 13.04 -3 11 C-3.99 11 -4.98 11 -6 11 C-6 10.01 -6 9.02 -6 8 C-4.02 8 -2.04 8 0 8 C0 5.36 0 2.72 0 0 Z " fill="#494B60" transform="translate(146,280)"/>
<path d="M0 0 C9.24 0 18.48 0 28 0 C28 0.33 28 0.66 28 1 C21.07 1 14.14 1 7 1 C7 1.99 7 2.98 7 4 C11.62 4 16.24 4 21 4 C21.33 4.66 21.66 5.32 22 6 C22.99 6.33 23.98 6.66 25 7 C25 9.64 25 12.28 25 15 C23.68 15 22.36 15 21 15 C21 15.99 21 16.98 21 18 C14.07 18 7.14 18 0 18 C0 17.01 0 16.02 0 15 C-0.99 15 -1.98 15 -3 15 C-3 12.69 -3 10.38 -3 8 C-4.32 7.67 -5.64 7.34 -7 7 C-6.01 7 -5.02 7 -4 7 C-4 6.01 -4 5.02 -4 4 C-2.68 4 -1.36 4 0 4 C0 2.68 0 1.36 0 0 Z " fill="#726C6A" transform="translate(136,223)"/>
<path d="M0 0 C0.3125 2.75 0.3125 2.75 0 6 C-1.2065625 6.804375 -1.2065625 6.804375 -2.4375 7.625 C-6.16630734 11.08096778 -5.99475333 14.34981044 -6.3125 19.25 C-6.38533203 20.09046875 -6.45816406 20.9309375 -6.53320312 21.796875 C-6.70928817 23.86293958 -6.85740814 25.93135398 -7 28 C-4.69 28 -2.38 28 0 28 C0 31.63 0 35.26 0 39 C-6.52797028 36.38881189 -12.0819125 32.64675486 -15 26 C-15.56246385 23.54561227 -15.84762865 21.49018323 -16 19 C-16.07605469 17.93265625 -16.15210938 16.8653125 -16.23046875 15.765625 C-16.27816406 14.60546875 -16.32585937 13.4453125 -16.375 12.25 C-16.44847656 10.58710938 -16.44847656 10.58710938 -16.5234375 8.890625 C-16 6 -16 6 -13.734375 4.21484375 C-12.83203125 3.81394531 -11.9296875 3.41304687 -11 3 C-10.29617187 2.68675781 -9.59234375 2.37351563 -8.8671875 2.05078125 C-8.20976562 1.80714844 -7.55234375 1.56351563 -6.875 1.3125 C-6.21242188 1.06113281 -5.54984375 0.80976563 -4.8671875 0.55078125 C-3 0 -3 0 0 0 Z " fill="#F05C57" transform="translate(265,193)"/>
<path d="M0 0 C2.64 0 5.28 0 8 0 C7.67 1.65 7.34 3.3 7 5 C8.32 5 9.64 5 11 5 C10.00804829 22.99195171 10.00804829 22.99195171 6 27 C4.33382885 27.04063832 2.66611905 27.042721 1 27 C1 28.32 1 29.64 1 31 C-1.64 31 -4.28 31 -7 31 C-6.35529368 25.1710573 -5.3519862 19.53129941 -4.0625 13.8125 C-3.89298828 13.03197266 -3.72347656 12.25144531 -3.54882812 11.44726562 C-2.66065716 7.46569312 -1.67228751 3.74202451 0 0 Z " fill="#F1CA2D" transform="translate(357,267)"/>
<path d="M0 0 C-0.99 0.495 -0.99 0.495 -2 1 C-2 2.32 -2 3.64 -2 5 C-1.01 5 -0.02 5 1 5 C1 6.32 1 7.64 1 9 C0.01 9 -0.98 9 -2 9 C-2 11.64 -2 14.28 -2 17 C-1.484375 16.7525 -0.96875 16.505 -0.4375 16.25 C2.70616967 15.92757234 4.06195041 17.17465334 6.65234375 18.80859375 C11.72840185 21.38462989 17.53401409 22.54240376 23 24 C23 29.61 23 35.22 23 41 C24.65 41 26.3 41 28 41 C28 41.33 28 41.66 28 42 C26.02 42 24.04 42 22 42 C22 36.39 22 30.78 22 25 C20.55625 24.938125 19.1125 24.87625 17.625 24.8125 C11.67688112 24.25167736 7.12035488 21.95237484 2 19 C2 19.66 2 20.32 2 21 C1.34 21 0.68 21 0 21 C0 20.34 0 19.68 0 19 C-0.54269531 19.28875 -1.08539063 19.5775 -1.64453125 19.875 C-2.71767578 20.431875 -2.71767578 20.431875 -3.8125 21 C-4.52019531 21.37125 -5.22789062 21.7425 -5.95703125 22.125 C-8 23 -8 23 -11 23 C-11 18.38 -11 13.76 -11 9 C-11.99 9 -12.98 9 -14 9 C-13.67 7.68 -13.34 6.36 -13 5 C-12.34 5 -11.68 5 -11 5 C-11 3.68 -11 2.36 -11 1 C-7.27569643 0.30710631 -3.78916254 -0.11144596 0 0 Z " fill="#3B5867" transform="translate(264,168)"/>
<path d="M0 0 C1.75 1.0625 1.75 1.0625 3 3 C3.40047444 5.32275177 3.7397104 7.65739357 4 10 C4.33 10.33 4.66 10.66 5 11 C5.09823937 12.66429051 5.12973631 14.33281931 5.125 16 C5.12757813 16.9075 5.13015625 17.815 5.1328125 18.75 C5 21 5 21 4 22 C1.64686445 22.07271741 -0.70833668 22.08370868 -3.0625 22.0625 C-4.35285156 22.05347656 -5.64320313 22.04445312 -6.97265625 22.03515625 C-7.97167969 22.02355469 -8.97070312 22.01195312 -10 22 C-10.45448415 6.62328613 -10.45448415 6.62328613 -6.6875 1.0625 C-4.29580306 -0.44338326 -2.77114965 -0.41567245 0 0 Z " fill="#3E5160" transform="translate(268,199)"/>
<path d="M0 0 C1.32 0 2.64 0 4 0 C3.25 4.75 3.25 4.75 1 7 C-0.32 7 -1.64 7 -3 7 C-2.67 7.66 -2.34 8.32 -2 9 C-1.07058594 8.98839844 -0.14117187 8.97679687 0.81640625 8.96484375 C13.09490334 8.87521968 13.09490334 8.87521968 19 10 C19 11.32 19 12.64 19 14 C17.35 14.33 15.7 14.66 14 15 C13.67 16.65 13.34 18.3 13 20 C12.01 20 11.02 20 10 20 C10 21.32 10 22.64 10 24 C11.65 24 13.3 24 15 24 C15.33 23.01 15.66 22.02 16 21 C16.66 21 17.32 21 18 21 C18 22.32 18 23.64 18 25 C19.98 24.67 21.96 24.34 24 24 C24 25.65 24 27.3 24 29 C22.9790625 28.7834375 22.9790625 28.7834375 21.9375 28.5625 C19.72065192 28.13799718 17.48732633 27.79831018 15.25 27.5 C12 27 12 27 11 26 C10.67 28.64 10.34 31.28 10 34 C9.67 34 9.34 34 9 34 C9 28.39 9 22.78 9 17 C7.35 17 5.7 17 4 17 C-0.79467302 15.85995127 -5.30697424 14.37189308 -9 11 C-7.98502564 7.95507691 -7.4178943 6.9701361 -5 5 C-2.8125 4.3125 -2.8125 4.3125 -1 4 C-0.67 2.68 -0.34 1.36 0 0 Z " fill="#F29068" transform="translate(278,175)"/>
<path d="M0 0 C3.63 0 7.26 0 11 0 C11 4.62 11 9.24 11 14 C11.99 14 12.98 14 14 14 C14 12.68 14 11.36 14 10 C15.32 10 16.64 10 18 10 C18 9.01 18 8.02 18 7 C18.99 7 19.98 7 21 7 C21 7.99 21 8.98 21 10 C23.31 10 25.62 10 28 10 C28 9.01 28 8.02 28 7 C30.31 7 32.62 7 35 7 C35 9.31 35 11.62 35 14 C31.37 14 27.74 14 24 14 C24 13.01 24 12.02 24 11 C23.01 11 22.02 11 21 11 C21 13.97 21 16.94 21 20 C19.02 20 17.04 20 15 20 C15 19.34 15 18.68 15 18 C13.68 17.67 12.36 17.34 11 17 C11 16.34 11 15.68 11 15 C9.68 15 8.36 15 7 15 C7 12.36 7 9.72 7 7 C5.68 7 4.36 7 3 7 C3 5.68 3 4.36 3 3 C2.01 3 1.02 3 0 3 C0 2.01 0 1.02 0 0 Z " fill="#595A71" transform="translate(143,273)"/>
<path d="M0 0 C3.96 0 7.92 0 12 0 C12 0.99 12 1.98 12 3 C12.66 3 13.32 3 14 3 C14 4.98 14 6.96 14 9 C13.01 9 12.02 9 11 9 C11.33 12.3 11.66 15.6 12 19 C12.66 19 13.32 19 14 19 C14 20.98 14 22.96 14 25 C13.01 25 12.02 25 11 25 C11 23.35 11 21.7 11 20 C10.01 20 9.02 20 8 20 C8 18.35 8 16.7 8 15 C7.01 15 6.02 15 5 15 C5 14.01 5 13.02 5 12 C4.34 12 3.68 12 3 12 C3 16.29 3 20.58 3 25 C2.01 25 1.02 25 0 25 C0 16.75 0 8.5 0 0 Z " fill="#050400" transform="translate(233,310)"/>
<path d="M0 0 C2.97 0 5.94 0 9 0 C9 0.99 9 1.98 9 3 C9.99 3 10.98 3 12 3 C12 10.26 12 17.52 12 25 C10.68 25 9.36 25 8 25 C8 20.71 8 16.42 8 12 C5.69 12 3.38 12 1 12 C1 16.29 1 20.58 1 25 C0.01 25 -0.98 25 -2 25 C-2 17.74 -2 10.48 -2 3 C-1.34 3 -0.68 3 0 3 C0 2.01 0 1.02 0 0 Z " fill="#141103" transform="translate(271,310)"/>
<path d="M0 0 C1.32 0 2.64 0 4 0 C4 1.65 4 3.3 4 5 C4.66 5 5.32 5 6 5 C6 5.99 6 6.98 6 8 C6.99 8 7.98 8 9 8 C9 9.98 9 11.96 9 14 C9.66 14 10.32 14 11 14 C11 9.71 11 5.42 11 1 C11.99 1 12.98 1 14 1 C14 8.92 14 16.84 14 25 C13.01 25 12.02 25 11 25 C11 23.35 11 21.7 11 20 C10.01 20 9.02 20 8 20 C8 18.02 8 16.04 8 14 C7.01 14 6.02 14 5 14 C4.67 17.63 4.34 21.26 4 25 C2.68 25 1.36 25 0 25 C0 16.75 0 8.5 0 0 Z " fill="#1A1504" transform="translate(179,310)"/>
<path d="M0 0 C1.32 0 2.64 0 4 0 C4 8.25 4 16.5 4 25 C2.68 25 1.36 25 0 25 C0 23.35 0 21.7 0 20 C-0.66 20 -1.32 20 -2 20 C-2 18.02 -2 16.04 -2 14 C-2.99 14 -3.98 14 -5 14 C-5 12.35 -5 10.7 -5 9 C-5.66 9 -6.32 9 -7 9 C-7 14.28 -7 19.56 -7 25 C-7.99 25 -8.98 25 -10 25 C-10 17.08 -10 9.16 -10 1 C-9.01 1 -8.02 1 -7 1 C-7 2.65 -7 4.3 -7 6 C-6.01 6 -5.02 6 -4 6 C-4 6.66 -4 7.32 -4 8 C-3.01 8 -2.02 8 -1 8 C-0.67 5.36 -0.34 2.72 0 0 Z " fill="#2D2608" transform="translate(358,310)"/>
<path d="M0 0 C0.99 0 1.98 0 3 0 C3 0.66 3 1.32 3 2 C3.99 2 4.98 2 6 2 C6 2.99 6 3.98 6 5 C6.66 5 7.32 5 8 5 C8 4.01 8 3.02 8 2 C8.99 2 9.98 2 11 2 C11 1.34 11 0.68 11 0 C11.99 0 12.98 0 14 0 C14 7.92 14 15.84 14 24 C12.68 24 11.36 24 10 24 C9.67 19.71 9.34 15.42 9 11 C7.68 11 6.36 11 5 11 C5 9.02 5 7.04 5 5 C4.34 5 3.68 5 3 5 C3 11.27 3 17.54 3 24 C2.01 24 1.02 24 0 24 C0 16.08 0 8.16 0 0 Z " fill="#141103" transform="translate(312,311)"/>
<path d="M0 0 C0.99 0 1.98 0 3 0 C3 1.65 3 3.3 3 5 C3.99 5 4.98 5 6 5 C6 5.66 6 6.32 6 7 C6.99 7 7.98 7 9 7 C9 8.98 9 10.96 9 13 C9.66 13 10.32 13 11 13 C11 8.71 11 4.42 11 0 C11.99 0 12.98 0 14 0 C14 7.92 14 15.84 14 24 C13.01 24 12.02 24 11 24 C11 22.35 11 20.7 11 19 C10.01 19 9.02 19 8 19 C8 17.35 8 15.7 8 14 C7.01 14 6.02 14 5 14 C5 12.02 5 10.04 5 8 C4.34 8 3.68 8 3 8 C3 13.28 3 18.56 3 24 C2.01 24 1.02 24 0 24 C0 16.08 0 8.16 0 0 Z " fill="#120F03" transform="translate(294,311)"/>
<path d="M0 0 C4.95 0 9.9 0 15 0 C15 1.32 15 2.64 15 4 C11.37 4 7.74 4 4 4 C4 5.32 4 6.64 4 8 C5.65 8 7.3 8 9 8 C9 9.32 9 10.64 9 12 C7.35 12 5.7 12 4 12 C4 15.3 4 18.6 4 22 C7.3 22 10.6 22 14 22 C14 22.99 14 23.98 14 25 C9.38 25 4.76 25 0 25 C0 16.75 0 8.5 0 0 Z " fill="#282207" transform="translate(161,310)"/>
<path d="M0 0 C0.33 0 0.66 0 1 0 C1 2.31 1 4.62 1 7 C0.01 7 -0.98 7 -2 7 C-2 14.92 -2 22.84 -2 31 C-1.34 31 -0.68 31 0 31 C0 28.69 0 26.38 0 24 C2.64 24 5.28 24 8 24 C8 24.33 8 24.66 8 25 C5.69 25 3.38 25 1 25 C1 26.98 1 28.96 1 31 C3.31 31 5.62 31 8 31 C8 32.32 8 33.64 8 35 C8.99 35 9.98 35 11 35 C11 32.69 11 30.38 11 28 C12.32 28 13.64 28 15 28 C15.125 34.75 15.125 34.75 14 37 C22.25 37.33 30.5 37.66 39 38 C39 36.02 39 34.04 39 32 C39.33 32 39.66 32 40 32 C40 34.31 40 36.62 40 39 C28.12 39 16.24 39 4 39 C4 36.69 4 34.38 4 32 C3.01 32 2.02 32 1 32 C1 34.31 1 36.62 1 39 C0.01 39 -0.98 39 -2 39 C-2 43.29 -2 47.58 -2 52 C-1.01 52 -0.02 52 1 52 C0.67 53.32 0.34 54.64 0 56 C0 55.01 0 54.02 0 53 C-0.99 53 -1.98 53 -3 53 C-3 48.05 -3 43.1 -3 38 C-2.01 38 -1.02 38 0 38 C0 36.02 0 34.04 0 32 C-0.99 32 -1.98 32 -3 32 C-3 23.42 -3 14.84 -3 6 C-2.01 6 -1.02 6 0 6 C0 4.02 0 2.04 0 0 Z " fill="#D09B90" transform="translate(128,231)"/>
<path d="M0 0 C0.33 0.99 0.66 1.98 1 3 C5.29 3 9.58 3 14 3 C14 2.01 14 1.02 14 0 C15.32 0 16.64 0 18 0 C18 2.31 18 4.62 18 7 C18.99 7 19.98 7 21 7 C21 5.68 21 4.36 21 3 C22.32 3.33 23.64 3.66 25 4 C24.67 5.98 24.34 7.96 24 10 C12.78 10 1.56 10 -10 10 C-10 9.67 -10 9.34 -10 9 C-8.906875 8.855625 -7.81375 8.71125 -6.6875 8.5625 C-3.06877013 8.11711896 -3.06877013 8.11711896 0 7 C0 4.69 0 2.38 0 0 Z " fill="#F2AE9E" transform="translate(143,259)"/>
<path d="M0 0 C4.62 0 9.24 0 14 0 C14 1.32 14 2.64 14 4 C10.7 4 7.4 4 4 4 C4 5.32 4 6.64 4 8 C5.65 8 7.3 8 9 8 C9 9.32 9 10.64 9 12 C7.02 12 5.04 12 3 12 C3 15.3 3 18.6 3 22 C6.63 22 10.26 22 14 22 C14 22.99 14 23.98 14 25 C9.38 25 4.76 25 0 25 C0 16.75 0 8.5 0 0 Z " fill="#201B06" transform="translate(215,310)"/>
<path d="M0 0 C0.99 0 1.98 0 3 0 C3 2.31 3 4.62 3 7 C4.32 7 5.64 7 7 7 C7 14.92 7 22.84 7 31 C5.68 31 4.36 31 3 31 C3 28.69 3 26.38 3 24 C2.01 24 1.02 24 0 24 C0 16.08 0 8.16 0 0 Z " fill="#504D57" transform="translate(168,231)"/>
<path d="M0 0 C2.31 0.33 4.62 0.66 7 1 C7 3.31 7 5.62 7 8 C7.95712891 7.98259766 7.95712891 7.98259766 8.93359375 7.96484375 C9.75988281 7.95582031 10.58617187 7.94679687 11.4375 7.9375 C12.26121094 7.92589844 13.08492187 7.91429687 13.93359375 7.90234375 C16 8 16 8 17 9 C17.04063832 10.66617115 17.042721 12.33388095 17 14 C17.99 14 18.98 14 20 14 C19.505 7.565 19.505 7.565 19 1 C19.66 1 20.32 1 21 1 C21.33 5.95 21.66 10.9 22 16 C19.03 16.33 16.06 16.66 13 17 C13 22.61 13 28.22 13 34 C12.34 34 11.68 34 11 34 C10.97292861 31.75006641 10.95357171 29.50003905 10.9375 27.25 C10.92589844 25.99703125 10.91429687 24.7440625 10.90234375 23.453125 C10.97978973 20.71463499 11.17219185 18.58119707 12 16 C10.68 16 9.36 16 8 16 C6.40861915 11.82262526 5.78721942 8.46839215 6 4 C4.02 4 2.04 4 0 4 C0 2.68 0 1.36 0 0 Z " fill="#F0AC6E" transform="translate(232,176)"/>
<path d="M0 0 C4.62 0 9.24 0 14 0 C14 1.32 14 2.64 14 4 C10.37 4 6.74 4 3 4 C3 5.65 3 7.3 3 9 C4.65 9 6.3 9 8 9 C8 9.66 8 10.32 8 11 C6.35 11 4.7 11 3 11 C3 14.63 3 18.26 3 22 C6.63 22 10.26 22 14 22 C14 22.99 14 23.98 14 25 C9.38 25 4.76 25 0 25 C0 16.75 0 8.5 0 0 Z " fill="#181404" transform="translate(330,310)"/>
<path d="M0 0 C0.3125 2.75 0.3125 2.75 0 6 C-1.65385233 7.34919532 -3.321702 8.68133728 -5 10 C-5.74386068 12.30988315 -6.42190703 14.64315944 -7 17 C-7.66 17.33 -8.32 17.66 -9 18 C-9.66 17.67 -10.32 17.34 -11 17 C-11 16.34 -11 15.68 -11 15 C-11.99 15 -12.98 15 -14 15 C-14.33 15.66 -14.66 16.32 -15 17 C-15.35671173 13.59802701 -15.4987321 10.39241733 -15 7 C-10.91651339 2.33315816 -6.22111437 0 0 0 Z " fill="#FC7D74" transform="translate(265,193)"/>
<path d="M0 0 C3.96 0 7.92 0 12 0 C12 1.32 12 2.64 12 4 C9.36 4 6.72 4 4 4 C4 5.32 4 6.64 4 8 C5.65 8 7.3 8 9 8 C9 8.99 9 9.98 9 11 C9.66 11 10.32 11 11 11 C11 14.63 11 18.26 11 22 C10.34 22 9.68 22 9 22 C9 22.99 9 23.98 9 25 C7.02 25 5.04 25 3 25 C3 24.01 3 23.02 3 22 C4.65 22 6.3 22 8 22 C8 18.7 8 15.4 8 12 C5.36 12 2.72 12 0 12 C0 8.04 0 4.08 0 0 Z " fill="#352D0A" transform="translate(140,310)"/>
<path d="M0 0 C0 0.66 0 1.32 0 2 C0.66 2 1.32 2 2 2 C2 1.34 2 0.68 2 0 C2.61875 0.268125 3.2375 0.53625 3.875 0.8125 C7.40187389 2.15271208 10.9695067 3.19012209 14.59765625 4.21875 C16.87607209 4.95969824 18.89161377 5.87033347 21 7 C20.34 7 19.68 7 19 7 C19 7.66 19 8.32 19 9 C14.20554043 8.65131203 10.73268265 8.00437156 6.4375 5.8125 C3.09509478 4.23287013 2.25272043 3.96009677 -1.5625 4.5625 C-2.696875 5.036875 -3.83125 5.51125 -5 6 C-12.73684211 9 -12.73684211 9 -16 9 C-15.979375 10.11375 -15.95875 11.2275 -15.9375 12.375 C-16 16 -16 16 -17 18 C-17.66 18 -18.32 18 -19 18 C-19 14.04 -19 10.08 -19 6 C-17.02 5.62875 -17.02 5.62875 -15 5.25 C-10.81529217 4.33769403 -7.36446075 2.87244898 -3.62890625 0.8046875 C-2 0 -2 0 0 0 Z " fill="#E7E6E7" transform="translate(264,187)"/>
<path d="M0 0 C4.62 0 9.24 0 14 0 C14 1.32 14 2.64 14 4 C12.35 4 10.7 4 9 4 C9 10.93 9 17.86 9 25 C7.68 25 6.36 25 5 25 C5 18.07 5 11.14 5 4 C3.35 4 1.7 4 0 4 C0 2.68 0 1.36 0 0 Z " fill="#302808" transform="translate(366,310)"/>
<path d="M0 0 C4.62 0 9.24 0 14 0 C14 1.32 14 2.64 14 4 C12.35 4 10.7 4 9 4 C9 10.93 9 17.86 9 25 C7.68 25 6.36 25 5 25 C5 18.07 5 11.14 5 4 C3.35 4 1.7 4 0 4 C0 2.68 0 1.36 0 0 Z " fill="#2D2608" transform="translate(251,310)"/>
<path d="M0 0 C4.62 0 9.24 0 14 0 C14 1.32 14 2.64 14 4 C12.35 4 10.7 4 9 4 C9 10.93 9 17.86 9 25 C7.68 25 6.36 25 5 25 C5 18.07 5 11.14 5 4 C3.35 4 1.7 4 0 4 C0 2.68 0 1.36 0 0 Z " fill="#2F2809" transform="translate(197,310)"/>
<path d="M0 0 C0.99 0 1.98 0 3 0 C3 2.31 3 4.62 3 7 C4.32 7 5.64 7 7 7 C7 10.3 7 13.6 7 17 C5.68 17 4.36 17 3 17 C3 17.99 3 18.98 3 20 C0.69 20 -1.62 20 -4 20 C-4 16.7 -4 13.4 -4 10 C-2.68 10 -1.36 10 0 10 C0 6.7 0 3.4 0 0 Z " fill="#60627A" transform="translate(168,263)"/>
<path d="M0 0 C1.093125 0.0825 2.18625 0.165 3.3125 0.25 C3.3125 0.91 3.3125 1.57 3.3125 2.25 C1.9925 2.25 0.6725 2.25 -0.6875 2.25 C-0.6875 2.91 -0.6875 3.57 -0.6875 4.25 C0.26125 4.188125 1.21 4.12625 2.1875 4.0625 C3.21875 4.124375 4.25 4.18625 5.3125 4.25 C7.3125 7.25 7.3125 7.25 7 9.875 C6.3125 12.25 6.3125 12.25 5.3125 13.25 C2.75686629 13.32211665 0.21589547 13.24633716 -2.33984375 13.1875 C-4.70995407 13.08487207 -4.70995407 13.08487207 -6.6875 14.25 C-6.76903933 12.66753293 -6.82693557 11.08383727 -6.875 9.5 C-6.90980469 8.61828125 -6.94460937 7.7365625 -6.98046875 6.828125 C-6.42641344 1.95243827 -4.85866921 0.3294013 0 0 Z " fill="#5D7E84" transform="translate(254.6875,145.75)"/>
<path d="M0 0 C0.33 0 0.66 0 1 0 C0.97679687 0.556875 0.95359375 1.11375 0.9296875 1.6875 C0.73417109 9.95505122 1.7223506 16.36524075 7 23 C9.40144575 25.15449966 9.40144575 25.15449966 12 27 C14.8125 29.0625 14.8125 29.0625 17 31 C17 31.99 17 32.98 17 34 C15.02 33.34 13.04 32.68 11 32 C11 31.34 11 30.68 11 30 C10.29875 29.814375 9.5975 29.62875 8.875 29.4375 C3.94474742 26.97237371 1.01786016 23.4693214 -1.08203125 18.375 C-2.86136741 12.52512771 -3.24060819 7.97747581 -2 2 C-1.34 2 -0.68 2 0 2 C0 1.34 0 0.68 0 0 Z " fill="#9DA2AD" transform="translate(247,203)"/>
<path d="M0 0 C1.32 0 2.64 0 4 0 C4 2.64 4 5.28 4 8 C5.32 8 6.64 8 8 8 C9.75 9.3125 9.75 9.3125 11 11 C11 11.99 11 12.98 11 14 C6.38 14 1.76 14 -3 14 C-3 13.01 -3 12.02 -3 11 C-3.99 11 -4.98 11 -6 11 C-6 10.01 -6 9.02 -6 8 C-4.02 8 -2.04 8 0 8 C0 5.36 0 2.72 0 0 Z " fill="#393B50" transform="translate(146,280)"/>
<path d="M0 0 C3.3 0 6.6 0 10 0 C10 2.64 10 5.28 10 8 C8.02 8 6.04 8 4 8 C4 8.99 4 9.98 4 11 C4.99 11 5.98 11 7 11 C7 11.99 7 12.98 7 14 C4.69 14 2.38 14 0 14 C0 9.38 0 4.76 0 0 Z " fill="#58576F" transform="translate(136,280)"/>
<path d="M0 0 C2.97 0 5.94 0 9 0 C9 0.99 9 1.98 9 3 C9.99 3 10.98 3 12 3 C12 10.26 12 17.52 12 25 C11.67 25 11.34 25 11 25 C11 18.07 11 11.14 11 4 C10.34 4 9.68 4 9 4 C9 5.65 9 7.3 9 9 C6.36 9 3.72 9 1 9 C0.87625 8.195625 0.7525 7.39125 0.625 6.5625 C0.315625 5.2940625 0.315625 5.2940625 0 4 C-0.66 3.67 -1.32 3.34 -2 3 C-1.34 3 -0.68 3 0 3 C0 2.01 0 1.02 0 0 Z " fill="#322A09" transform="translate(271,310)"/>
<path d="M0 0 C1.32 0 2.64 0 4 0 C4 1.65 4 3.3 4 5 C4.66 5 5.32 5 6 5 C6 5.99 6 6.98 6 8 C5.34 8 4.68 8 4 8 C4 13.61 4 19.22 4 25 C2.68 25 1.36 25 0 25 C0 16.75 0 8.5 0 0 Z " fill="#302809" transform="translate(179,310)"/>
<path d="M0 0 C3.3 0 6.6 0 10 0 C10 1.65 10 3.3 10 5 C11.32 5 12.64 5 14 5 C13.34 7.64 12.68 10.28 12 13 C11.67 12.34 11.34 11.68 11 11 C9.68 11 8.36 11 7 11 C7.33 9.35 7.66 7.7 8 6 C5.36 6 2.72 6 0 6 C-0.33 6.99 -0.66 7.98 -1 9 C-1 8.01 -1 7.02 -1 6 C-2.65 6.33 -4.3 6.66 -6 7 C-6 6.34 -6 5.68 -6 5 C-4.35 4.67 -2.7 4.34 -1 4 C-0.67 2.68 -0.34 1.36 0 0 Z " fill="#201B06" transform="translate(265,261)"/>
<path d="M0 0 C3.96 0 7.92 0 12 0 C12 0.99 12 1.98 12 3 C12.66 3 13.32 3 14 3 C14 4.98 14 6.96 14 9 C10.37 9 6.74 9 3 9 C3 7.02 3 5.04 3 3 C5.64 3 8.28 3 11 3 C11 2.34 11 1.68 11 1 C7.7 1 4.4 1 1 1 C1 8.92 1 16.84 1 25 C0.67 25 0.34 25 0 25 C0 16.75 0 8.5 0 0 Z " fill="#4E410E" transform="translate(233,310)"/>
<path d="M0 0 C0.78375 0.04125 1.5675 0.0825 2.375 0.125 C1.570625 0.681875 0.76625 1.23875 -0.0625 1.8125 C-2.86728216 4.34364487 -3.31881595 5.45079134 -3.625 9.125 C-2.985625 9.24875 -2.34625 9.3725 -1.6875 9.5 C-1.006875 9.70625 -0.32625 9.9125 0.375 10.125 C0.705 10.785 1.035 11.445 1.375 12.125 C0.385 12.62 0.385 12.62 -0.625 13.125 C-0.625 14.775 -0.625 16.425 -0.625 18.125 C0.035 18.455 0.695 18.785 1.375 19.125 C0.715 19.125 0.055 19.125 -0.625 19.125 C-0.625 19.785 -0.625 20.445 -0.625 21.125 C-2.605 21.125 -4.585 21.125 -6.625 21.125 C-7.00667939 8.21151399 -7.00667939 8.21151399 -4.625 2.125 C-2.625 0.125 -2.625 0.125 0 0 Z " fill="#3A5363" transform="translate(264.625,199.875)"/>
<path d="M0 0 C0.99 0 1.98 0 3 0 C3 7.92 3 15.84 3 24 C2.01 24 1.02 24 0 24 C0 17.73 0 11.46 0 5 C-0.66 5 -1.32 5 -2 5 C-2 6.98 -2 8.96 -2 11 C-2.99 11 -3.98 11 -5 11 C-5 9.02 -5 7.04 -5 5 C-4.34 5 -3.68 5 -3 5 C-3 4.01 -3 3.02 -3 2 C-2.01 2 -1.02 2 0 2 C0 1.34 0 0.68 0 0 Z " fill="#0B0A02" transform="translate(133,311)"/>
<path d="M0 0 C0.99 0 1.98 0 3 0 C3 0.99 3 1.98 3 3 C5.64 3 8.28 3 11 3 C11 4.32 11 5.64 11 7 C8.36 7 5.72 7 3 7 C3 9.97 3 12.94 3 16 C2.01 16 1.02 16 0 16 C0 15.01 0 14.02 0 13 C-1.98 13 -3.96 13 -6 13 C-6 12.01 -6 11.02 -6 10 C-4.02 10 -2.04 10 0 10 C0 6.7 0 3.4 0 0 Z " fill="#393B4F" transform="translate(164,284)"/>
<path d="M0 0 C1.69921875 0.99609375 1.69921875 0.99609375 3.6875 2.4375 C7.65946464 5.01856006 10.19638498 5.61136918 15 5 C17.34476551 4.3747292 19.68060793 3.7136591 22 3 C22.99 3 23.98 3 25 3 C24.67 3.99 24.34 4.98 24 6 C23.34 6 22.68 6 22 6 C22 6.66 22 7.32 22 8 C15.662941 9.6898824 8.69902176 10.34999626 2.875 7 C1.92625 6.34 0.9775 5.68 0 5 C0 4.34 0 3.68 0 3 C-0.66 3 -1.32 3 -2 3 C-2 2.34 -2 1.68 -2 1 C-1.34 0.67 -0.68 0.34 0 0 Z " fill="#5B7F83" transform="translate(225,226)"/>
<path d="M0 0 C0.99 0 1.98 0 3 0 C3 0.99 3 1.98 3 3 C5.64 3 8.28 3 11 3 C10.67 4.32 10.34 5.64 10 7 C10 6.01 10 5.02 10 4 C8.02 4 6.04 4 4 4 C4 4.99 4 5.98 4 7 C2.68 7 1.36 7 0 7 C0 8.32 0 9.64 0 11 C-2.31 11 -4.62 11 -7 11 C-7 8.36 -7 5.72 -7 3 C-4.69 3 -2.38 3 0 3 C0 2.01 0 1.02 0 0 Z " fill="#68676F" transform="translate(143,294)"/>
<path d="M0 0 C1.32 0 2.64 0 4 0 C4 0.99 4 1.98 4 3 C4.66 3 5.32 3 6 3 C6 3.99 6 4.98 6 6 C5.01 6 4.02 6 3 6 C3 12.27 3 18.54 3 25 C2.01 25 1.02 25 0 25 C0 16.75 0 8.5 0 0 Z " fill="#171304" transform="translate(122,310)"/>
<path d="M0 0 C0.33 0 0.66 0 1 0 C1 2.31 1 4.62 1 7 C0.01 7 -0.98 7 -2 7 C-2 14.92 -2 22.84 -2 31 C-1.34 31 -0.68 31 0 31 C0 28.69 0 26.38 0 24 C2.64 24 5.28 24 8 24 C8 24.33 8 24.66 8 25 C5.69 25 3.38 25 1 25 C1 26.98 1 28.96 1 31 C1.99 31.33 2.98 31.66 4 32 C3.01 32 2.02 32 1 32 C1 34.31 1 36.62 1 39 C0.01 39 -0.98 39 -2 39 C-2 43.29 -2 47.58 -2 52 C-1.01 52 -0.02 52 1 52 C0.67 53.32 0.34 54.64 0 56 C0 55.01 0 54.02 0 53 C-0.99 53 -1.98 53 -3 53 C-3 48.05 -3 43.1 -3 38 C-2.01 38 -1.02 38 0 38 C0 36.02 0 34.04 0 32 C-0.99 32 -1.98 32 -3 32 C-3 23.42 -3 14.84 -3 6 C-2.01 6 -1.02 6 0 6 C0 4.02 0 2.04 0 0 Z " fill="#968251" transform="translate(128,231)"/>
<path d="M0 0 C0.99 0 1.98 0 3 0 C3 0.66 3 1.32 3 2 C3.99 2 4.98 2 6 2 C6 2.99 6 3.98 6 5 C5.01 5 4.02 5 3 5 C3 11.27 3 17.54 3 24 C2.01 24 1.02 24 0 24 C0 16.08 0 8.16 0 0 Z " fill="#110E03" transform="translate(312,311)"/>
<path d="M0 0 C3.3 0 6.6 0 10 0 C10 4.62 10 9.24 10 14 C9.01 14 8.02 14 7 14 C7 11.69 7 9.38 7 7 C5.68 7 4.36 7 3 7 C3 5.68 3 4.36 3 3 C2.01 3 1.02 3 0 3 C0 2.01 0 1.02 0 0 Z " fill="#BDB9CE" transform="translate(143,273)"/>
<path d="M0 0 C0 5.61 0 11.22 0 17 C3.465 16.505 3.465 16.505 7 16 C7 16.66 7 17.32 7 18 C4.36 18 1.72 18 -1 18 C-1 13.71 -1 9.42 -1 5 C-1.66 5 -2.32 5 -3 5 C-2.855625 6.08539063 -2.71125 7.17078125 -2.5625 8.2890625 C-2.37480044 9.7343491 -2.18731162 11.17966307 -2 12.625 C-1.90460938 13.33785156 -1.80921875 14.05070313 -1.7109375 14.78515625 C-1.18393899 18.88821609 -0.89533016 22.85245742 -1 27 C-2.98 27.99 -2.98 27.99 -5 29 C-4.9278125 28.46375 -4.855625 27.9275 -4.78125 27.375 C-4.2860607 23.19340147 -3.96360159 19.09020556 -4.0390625 14.87890625 C-4.05130859 14.16669922 -4.06355469 13.45449219 -4.07617188 12.72070312 C-4.10840815 11.29585976 -4.15372251 9.87124488 -4.21289062 8.44726562 C-4.32495126 3.44351456 -4.32495126 3.44351456 -2.5546875 1.02734375 C-1 0 -1 0 0 0 Z " fill="#ADACA1" transform="translate(286,193)"/>
<path d="M0 0 C1.65 0 3.3 0 5 0 C4.125 7.625 4.125 7.625 3 11 C1.35 11 -0.3 11 -2 11 C-2.33 12.32 -2.66 13.64 -3 15 C-3 13.68 -3 12.36 -3 11 C-4.32 11 -5.64 11 -7 11 C-7 10.34 -7 9.68 -7 9 C-5.68 9 -4.36 9 -3 9 C-2.01 6.03 -1.02 3.06 0 0 Z " fill="#141103" transform="translate(310,261)"/>
<path d="M0 0 C0.99 0 1.98 0 3 0 C3 1.65 3 3.3 3 5 C3.66 5 4.32 5 5 5 C5 5.66 5 6.32 5 7 C4.34 7 3.68 7 3 7 C3 12.61 3 18.22 3 24 C2.01 24 1.02 24 0 24 C0 16.08 0 8.16 0 0 Z " fill="#0D0A02" transform="translate(294,311)"/>
<path d="M0 0 C1.65 0 3.3 0 5 0 C5.33 3.63 5.66 7.26 6 11 C3.69 11.66 1.38 12.32 -1 13 C-1.02686553 11.02090602 -1.04633375 9.04171029 -1.0625 7.0625 C-1.07410156 5.96035156 -1.08570313 4.85820312 -1.09765625 3.72265625 C-1 1 -1 1 0 0 Z " fill="#4F7582" transform="translate(255,178)"/>
<path d="M0 0 C0.99 0 1.98 0 3 0 C3 7.92 3 15.84 3 24 C2.01 24 1.02 24 0 24 C0 16.08 0 8.16 0 0 Z " fill="#0F0C02" transform="translate(287,311)"/>
<path d="M0 0 C1.32 0.33 2.64 0.66 4 1 C3.01 1 2.02 1 1 1 C1 2.32 1 3.64 1 5 C2.65 5 4.3 5 6 5 C6.33 4.01 6.66 3.02 7 2 C7.66 2 8.32 2 9 2 C9 3.32 9 4.64 9 6 C10.98 5.67 12.96 5.34 15 5 C15 6.65 15 8.3 15 10 C13.9790625 9.7834375 13.9790625 9.7834375 12.9375 9.5625 C10.72065192 9.13799718 8.48732633 8.79831018 6.25 8.5 C3 8 3 8 2 7 C1.67 9.64 1.34 12.28 1 15 C0.67 15 0.34 15 0 15 C0 10.05 0 5.1 0 0 Z " fill="#D8A784" transform="translate(287,194)"/>
<path d="M0 0 C0.66 0 1.32 0 2 0 C2 7.92 2 15.84 2 24 C1.01 24 0.02 24 -1 24 C-1 22.35 -1 20.7 -1 19 C-1.66 19 -2.32 19 -3 19 C-3 17.02 -3 15.04 -3 13 C-2.01 13 -1.02 13 0 13 C0 8.71 0 4.42 0 0 Z " fill="#0E0C02" transform="translate(359,311)"/>
<path d="M0 0 C1.80639604 0.92023949 3.60956043 1.84745561 5.39453125 2.80859375 C10.67785526 5.22450653 16.40743448 6.49430928 22 8 C22 13.61 22 19.22 22 25 C23.65 25 25.3 25 27 25 C27 25.33 27 25.66 27 26 C25.02 26 23.04 26 21 26 C21 20.39 21 14.78 21 9 C19.55625 8.938125 18.1125 8.87625 16.625 8.8125 C10.67688112 8.25167736 6.12035488 5.95237484 1 3 C1 3.66 1 4.32 1 5 C0.34 5 -0.32 5 -1 5 C-1.66 3.68 -2.32 2.36 -3 1 C-2.01 0.67 -1.02 0.34 0 0 Z " fill="#4D6371" transform="translate(265,184)"/>
<path d="M0 0 C1.32 0.33 2.64 0.66 4 1 C3.01 1.33 2.02 1.66 1 2 C1 2.66 1 3.32 1 4 C1.99 4.33 2.98 4.66 4 5 C3.25 9.75 3.25 9.75 1 12 C1 10.68 1 9.36 1 8 C-1.97 8 -4.94 8 -8 8 C-8.33 9.32 -8.66 10.64 -9 12 C-10.42944945 9.64561267 -11.08661261 8.51967567 -10.625 5.75 C-10.41875 5.1725 -10.2125 4.595 -10 4 C-7.36 4 -4.72 4 -2 4 C-1.34 2.68 -0.68 1.36 0 0 Z " fill="#5A7376" transform="translate(261,161)"/>
<path d="M0 0 C-1.95216435 1.95216435 -3.53199953 2.84826645 -6 4 C-6.78998139 17.40823972 -6.78998139 17.40823972 -1.625 29.3125 C-0.75875 30.199375 0.1075 31.08625 1 32 C1.763125 32.78375 2.52625 33.5675 3.3125 34.375 C3.869375 34.91125 4.42625 35.4475 5 36 C-0.22795237 34.61613025 -2.94942615 31.24038711 -6 27 C-10.50906216 18.97697906 -8.8024281 9.78967391 -8 1 C-5.07175348 0.02391783 -3.04386724 -0.08226668 0 0 Z " fill="#9D4438" transform="translate(256,195)"/>
<path d="M0 0 C0.66 0 1.32 0 2 0 C2.33 4.95 2.66 9.9 3 15 C-1.455 15.495 -1.455 15.495 -6 16 C-6 21.61 -6 27.22 -6 33 C-6.66 33 -7.32 33 -8 33 C-8.02722517 30.79173622 -8.04649729 28.58337362 -8.0625 26.375 C-8.07410156 25.14523438 -8.08570313 23.91546875 -8.09765625 22.6484375 C-8.00863924 19.32276209 -7.63686087 16.25952412 -7 13 C-4.36 13 -1.72 13 1 13 C0.67 8.71 0.34 4.42 0 0 Z " fill="#878E77" transform="translate(251,177)"/>
<path d="M0 0 C0.99 0 1.98 0 3 0 C3.02720824 2.68756955 3.0469388 5.37485798 3.0625 8.0625 C3.07087891 8.81466797 3.07925781 9.56683594 3.08789062 10.34179688 C3.10808341 15.00633118 2.77595959 19.39923173 2 24 C1.34 24 0.68 24 0 24 C0 16.08 0 8.16 0 0 Z " fill="#3C3E53" transform="translate(126,238)"/>
<path d="M0 0 C1.2684375 0.12375 1.2684375 0.12375 2.5625 0.25 C4.5625 3.25 4.5625 3.25 4.25 5.875 C3.5625 8.25 3.5625 8.25 2.5625 9.25 C0.125 9.5 0.125 9.5 -2.4375 9.25 C-4.4375 6.25 -4.4375 6.25 -4.125 3.625 C-3.16976704 0.32510431 -3.16976704 0.32510431 0 0 Z " fill="#F1CF41" transform="translate(257.4375,149.75)"/>
<path d="M0 0 C0.99 0 1.98 0 3 0 C3 2.31 3 4.62 3 7 C5.31 7 7.62 7 10 7 C10 7.99 10 8.98 10 10 C7.69 10 5.38 10 3 10 C3 11.32 3 12.64 3 14 C2.01 14 1.02 14 0 14 C0 9.38 0 4.76 0 0 Z " fill="#3C3E51" transform="translate(133,287)"/>
<path d="M0 0 C0.33 0 0.66 0 1 0 C1 3.3 1 6.6 1 10 C-0.32 10 -1.64 10 -3 10 C-3 11.32 -3 12.64 -3 14 C-5.31 14 -7.62 14 -10 14 C-10 11.69 -10 9.38 -10 7 C-7.69 7 -5.38 7 -3 7 C-3 7.66 -3 8.32 -3 9 C-2.01 9 -1.02 9 0 9 C0 6.03 0 3.06 0 0 Z " fill="#686563" transform="translate(167,291)"/>
<path d="M0 0 C2.31 0 4.62 0 7 0 C7 2.31 7 4.62 7 7 C3.7 7 0.4 7 -3 7 C-3 5.68 -3 4.36 -3 3 C-2.01 3 -1.02 3 0 3 C0 2.01 0 1.02 0 0 Z " fill="#F0BBA6" transform="translate(171,280)"/>
<path d="M0 0 C6.6 0 13.2 0 20 0 C20 0.99 20 1.98 20 3 C13.4 3 6.8 3 0 3 C0 2.01 0 1.02 0 0 Z " fill="#44465C" transform="translate(143,224)"/>
<path d="M0 0 C1.41623216 -0.05447047 2.83308191 -0.09300508 4.25 -0.125 C5.03890625 -0.14820313 5.8278125 -0.17140625 6.640625 -0.1953125 C9.20731941 0.0171622 10.7916067 0.71345895 13 2 C12.67 3.65 12.34 5.3 12 7 C10.68 7.33 9.36 7.66 8 8 C7.67 7.01 7.34 6.02 7 5 C5.02 5 3.04 5 1 5 C1 4.34 1 3.68 1 3 C2.32 3 3.64 3 5 3 C5 2.34 5 1.68 5 1 C3.35 1.33 1.7 1.66 0 2 C0 1.34 0 0.68 0 0 Z " fill="#425F6B" transform="translate(253,145)"/>
<path d="M0 0 C0.99 0.33 1.98 0.66 3 1 C1.37660195 2.70884005 -0.29319053 4.37446717 -2 6 C-2.66 6 -3.32 6 -4 6 C-3.67 7.32 -3.34 8.64 -3 10 C-4.65 10.33 -6.3 10.66 -8 11 C-8 11.66 -8 12.32 -8 13 C-11.13349732 14.04449911 -11.98968256 13.93423645 -15 13 C-15 11.68 -15 10.36 -15 9 C-11.62182575 8.15545644 -9.32534757 7.89155081 -6 9 C-5.938125 8.443125 -5.87625 7.88625 -5.8125 7.3125 C-4.66626128 4.05012827 -2.50609803 2.31332126 0 0 Z " fill="#788793" transform="translate(279,225)"/>
<path d="M0 0 C0.99 0 1.98 0 3 0 C3 2.31 3 4.62 3 7 C4.32 7 5.64 7 7 7 C7 7.99 7 8.98 7 10 C5.68 10 4.36 10 3 10 C3 11.32 3 12.64 3 14 C2.01 14 1.02 14 0 14 C0 9.38 0 4.76 0 0 Z " fill="#3A3C52" transform="translate(154,273)"/>
<path d="M0 0 C0.33 0 0.66 0 1 0 C0.979375 1.258125 0.95875 2.51625 0.9375 3.8125 C0.92884928 9.24514947 1.43487613 14.60104876 2 20 C1.34 20 0.68 20 0 20 C-2.35001386 13.52086573 -3.38458877 8.79707213 -2 2 C-1.34 2 -0.68 2 0 2 C0 1.34 0 0.68 0 0 Z " fill="#B6BAC1" transform="translate(247,203)"/>
<path d="M0 0 C0.33 0.66 0.66 1.32 1 2 C1.66 2 2.32 2 3 2 C3.33 1.34 3.66 0.68 4 0 C4.99 0.66 5.98 1.32 7 2 C7.1875 4.625 7.1875 4.625 7 7 C7.66 7 8.32 7 9 7 C9 8.98 9 10.96 9 13 C8.01 13 7.02 13 6 13 C6 11.35 6 9.7 6 8 C5.01 8 4.02 8 3 8 C3 6.35 3 4.7 3 3 C2.01 3 1.02 3 0 3 C0 2.01 0 1.02 0 0 Z " fill="#342C09" transform="translate(238,322)"/>
<path d="M0 0 C4.55555556 0.55555556 4.55555556 0.55555556 6 2 C6.04063832 3.66617115 6.042721 5.33388095 6 7 C3.36 7 0.72 7 -2 7 C-2.125 4.625 -2.125 4.625 -2 2 C-1.34 1.34 -0.68 0.68 0 0 Z " fill="#B34542" transform="translate(263,202)"/>
<path d="M0 0 C9.24 0 18.48 0 28 0 C28 1.32 28 2.64 28 4 C27.01 4 26.02 4 25 4 C25 3.01 25 2.02 25 1 C18.07 1 11.14 1 4 1 C4 1.99 4 2.98 4 4 C2.68 4 1.36 4 0 4 C0 2.68 0 1.36 0 0 Z " fill="#C9A696" transform="translate(136,248)"/>
<path d="M0 0 C3.3 0 6.6 0 10 0 C10 0.66 10 1.32 10 2 C7.36 2 4.72 2 2 2 C2 3.98 2 5.96 2 8 C3.65 8 5.3 8 7 8 C7 8.66 7 9.32 7 10 C4.69 10 2.38 10 0 10 C0 6.7 0 3.4 0 0 Z " fill="#020100" transform="translate(141,311)"/>
<path d="M0 0 C3.3 0 6.6 0 10 0 C11 8.625 11 8.625 11 12 C10.34 12 9.68 12 9 12 C9 8.7 9 5.4 9 2 C7.35 2.33 5.7 2.66 4 3 C3.67 6.96 3.34 10.92 3 15 C2.67 15 2.34 15 2 15 C2 10.38 2 5.76 2 1 C1.34 0.67 0.68 0.34 0 0 Z " fill="#314F61" transform="translate(251,176)"/>
<path d="M0 0 C1.98 0 3.96 0 6 0 C6 6.27 6 12.54 6 19 C5.67 19 5.34 19 5 19 C4.67 14.71 4.34 10.42 4 6 C2.68 6 1.36 6 0 6 C0 4.02 0 2.04 0 0 Z " fill="#615112" transform="translate(317,316)"/>
<path d="M0 0 C0.66 0 1.32 0 2 0 C2 0.99 2 1.98 2 3 C2.99 3 3.98 3 5 3 C5 3.99 5 4.98 5 6 C6.65 6 8.3 6 10 6 C9.67 7.65 9.34 9.3 9 11 C8.01 11 7.02 11 6 11 C3.64276511 8.46815512 3 7.52809907 3 4 C1.68 4 0.36 4 -1 4 C-0.67 2.68 -0.34 1.36 0 0 Z " fill="#F29682" transform="translate(277,232)"/>
<path d="M0 0 C0.99 0.33 1.98 0.66 3 1 C3 2.98 3 4.96 3 7 C0.36 6.67 -2.28 6.34 -5 6 C-5.33 4.68 -5.66 3.36 -6 2 C-4.02 2 -2.04 2 0 2 C0 1.34 0 0.68 0 0 Z " fill="#F2CE46" transform="translate(287,186)"/>
<path d="M0 0 C0.99 0 1.98 0 3 0 C3 0.99 3 1.98 3 3 C5.64 3 8.28 3 11 3 C10.67 4.32 10.34 5.64 10 7 C10 6.01 10 5.02 10 4 C8.02 4 6.04 4 4 4 C4 4.99 4 5.98 4 7 C2.68 7 1.36 7 0 7 C0 6.01 0 5.02 0 4 C-2.31 4 -4.62 4 -7 4 C-7 3.67 -7 3.34 -7 3 C-4.69 3 -2.38 3 0 3 C0 2.01 0 1.02 0 0 Z " fill="#645F58" transform="translate(143,294)"/>
<path d="M0 0 C1.98 0 3.96 0 6 0 C6 2.31 6 4.62 6 7 C4.02 7 2.04 7 0 7 C0 4.69 0 2.38 0 0 Z " fill="#F8C7AE" transform="translate(140,280)"/>
<path d="M0 0 C0.99 0 1.98 0 3 0 C3 4.62 3 9.24 3 14 C2.01 14 1.02 14 0 14 C0 9.38 0 4.76 0 0 Z " fill="#3A3C4F" transform="translate(171,241)"/>
<path d="M0 0 C1.32 0 2.64 0 4 0 C4 3.3 4 6.6 4 10 C2.68 10 1.36 10 0 10 C0 6.7 0 3.4 0 0 Z " fill="#494A5C" transform="translate(171,270)"/>
<path d="M0 0 C0.99 0 1.98 0 3 0 C3 4.29 3 8.58 3 13 C2.01 13 1.02 13 0 13 C0 8.71 0 4.42 0 0 Z " fill="#3C3E54" transform="translate(126,270)"/>
<path d="M0 0 C0 1.98 0 3.96 0 6 C1.98 5.67 3.96 5.34 6 5 C6 6.32 6 7.64 6 9 C4.00045254 9.04254356 1.99958364 9.04080783 0 9 C-1 8 -1 8 -1.0625 4.9375 C-1.041875 3.968125 -1.02125 2.99875 -1 2 C-2.65 2 -4.3 2 -6 2 C-6.33 2.66 -6.66 3.32 -7 4 C-7 3.01 -7 2.02 -7 1 C-4.50935112 0.31292445 -2.62113708 0 0 0 Z " fill="#EBA16D" transform="translate(293,217)"/>
<path d="M0 0 C4.29 0.99 8.58 1.98 13 3 C12.01 3.495 12.01 3.495 11 4 C11 4.66 11 5.32 11 6 C9.741875 5.87625 8.48375 5.7525 7.1875 5.625 C6.12595703 5.52058594 6.12595703 5.52058594 5.04296875 5.4140625 C3 5 3 5 0 3 C0 2.01 0 1.02 0 0 Z " fill="#D9D4CA" transform="translate(272,190)"/>
<path d="M0 0 C1.32 0 2.64 0 4 0 C3.125 4.875 3.125 4.875 2 6 C0.00041636 6.04080783 -2.00045254 6.04254356 -4 6 C-4 6.99 -4 7.98 -4 9 C-4.99 9 -5.98 9 -7 9 C-7.33 9.99 -7.66 10.98 -8 12 C-8 8 -8 8 -6.75 6.3125 C-4.8286446 4.87148345 -3.34906978 4.40501203 -1 4 C-0.67 2.68 -0.34 1.36 0 0 Z " fill="#EE8F7A" transform="translate(278,175)"/>
<path d="M0 0 C0.33 0.66 0.66 1.32 1 2 C3.64 2 6.28 2 9 2 C9 3.32 9 4.64 9 6 C6.03 6 3.06 6 0 6 C0 4.02 0 2.04 0 0 Z " fill="#020200" transform="translate(221,297)"/>
<path d="M0 0 C2.97 0.33 5.94 0.66 9 1 C9.22786458 3.27864583 9.45572917 5.55729167 9.68359375 7.8359375 C9.89090114 10.04272805 9.89090114 10.04272805 11 12 C10.01 12 9.02 12 8 12 C8 9.03 8 6.06 8 3 C5.36 3.33 2.72 3.66 0 4 C0 2.68 0 1.36 0 0 Z " fill="#F4906B" transform="translate(227,186)"/>
<path d="M0 0 C1.98 0 3.96 0 6 0 C6 1.98 6 3.96 6 6 C4.02 6 2.04 6 0 6 C0 4.02 0 2.04 0 0 Z " fill="#6B6D84" transform="translate(158,284)"/>
<path d="M0 0 C0.66 0 1.32 0 2 0 C2 1.32 2 2.64 2 4 C3.98 3.67 5.96 3.34 8 3 C8 4.65 8 6.3 8 8 C6.35 7.67 4.7 7.34 3 7 C3 6.34 3 5.68 3 5 C2.34 5 1.68 5 1 5 C1 4.34 1 3.68 1 3 C0.34 3 -0.32 3 -1 3 C-0.67 2.01 -0.34 1.02 0 0 Z " fill="#F49765" transform="translate(294,196)"/>
<path d="M0 0 C0.99 0 1.98 0 3 0 C3.02698189 1.62490954 3.04638757 3.24994633 3.0625 4.875 C3.07410156 5.77992188 3.08570313 6.68484375 3.09765625 7.6171875 C3 10 3 10 2 12 C1.34 12 0.68 12 0 12 C0 8.04 0 4.08 0 0 Z " fill="#D8DBDD" transform="translate(245,193)"/>
<path d="M0 0 C0.66 0 1.32 0 2 0 C2 0.66 2 1.32 2 2 C2.66 2 3.32 2 4 2 C4 1.34 4 0.68 4 0 C6.4375 0.8125 6.4375 0.8125 9 2 C9.33 2.99 9.66 3.98 10 5 C10.66 5.33 11.32 5.66 12 6 C10.9790625 5.7834375 10.9790625 5.7834375 9.9375 5.5625 C6.63726918 4.93054091 3.32855574 4.45686059 0 4 C-0.33 3.01 -0.66 2.02 -1 1 C-0.67 0.67 -0.34 0.34 0 0 Z " fill="#DEDEDF" transform="translate(262,187)"/>
<path d="M0 0 C2.64 0 5.28 0 8 0 C8 3.3 8 6.6 8 10 C5.36 10 2.72 10 0 10 C0 9.01 0 8.02 0 7 C1.32 7 2.64 7 4 7 C4 7.66 4 8.32 4 9 C4.99 9 5.98 9 7 9 C7 6.36 7 3.72 7 1 C4.69 1 2.38 1 0 1 C0 0.67 0 0.34 0 0 Z " fill="#A58A1F" transform="translate(140,322)"/>
<path d="M0 0 C0.33 0 0.66 0 1 0 C1 3.3 1 6.6 1 10 C3.31 10 5.62 10 8 10 C8.33 9.34 8.66 8.68 9 8 C9 8.66 9 9.32 9 10 C9.66 10.33 10.32 10.66 11 11 C10.34 11 9.68 11 9 11 C9 13.97 9 16.94 9 20 C8.67 20 8.34 20 8 20 C8 17.03 8 14.06 8 11 C5.36 11 2.72 11 0 11 C0 7.37 0 3.74 0 0 Z " fill="#302809" transform="translate(140,311)"/>
<path d="M0 0 C0.33 0.66 0.66 1.32 1 2 C1.99 2 2.98 2 4 2 C4 3.98 4 5.96 4 8 C2.68 8.33 1.36 8.66 0 9 C0 7.02 0 5.04 0 3 C-0.66 2.67 -1.32 2.34 -2 2 C-1.34 2 -0.68 2 0 2 C0 1.34 0 0.68 0 0 Z " fill="#3B320B" transform="translate(299,316)"/>
<path d="M0 0 C0.66 0.33 1.32 0.66 2 1 C1.8125 3.875 1.8125 3.875 1 7 C-1.88941691 8.67282031 -3.6591357 9 -7 9 C-7 7.35 -7 5.7 -7 4 C-4.03 4.495 -4.03 4.495 -1 5 C-0.67 3.35 -0.34 1.7 0 0 Z " fill="#F68F67" transform="translate(239,206)"/>
<path d="M0 0 C1.32 0 2.64 0 4 0 C4 5.94 4 11.88 4 18 C3.67 18 3.34 18 3 18 C3 13.38 3 8.76 3 4 C2.01 4 1.02 4 0 4 C0 2.68 0 1.36 0 0 Z " fill="#67604C" transform="translate(129,283)"/>
<path d="M0 0 C3.3 0 6.6 0 10 0 C10 0.99 10 1.98 10 3 C6.7 3 3.4 3 0 3 C0 2.01 0 1.02 0 0 Z " fill="#E9E2F1" transform="translate(143,273)"/>
<path d="M0 0 C0.33 0.99 0.66 1.98 1 3 C1.66 3 2.32 3 3 3 C3 3.66 3 4.32 3 5 C3.66 5 4.32 5 5 5 C5 5.66 5 6.32 5 7 C3.35 7 1.7 7 0 7 C-0.33 7.66 -0.66 8.32 -1 9 C-1.33 6.36 -1.66 3.72 -2 1 C-1.34 0.67 -0.68 0.34 0 0 Z " fill="#5F777B" transform="translate(223,210)"/>
<path d="M0 0 C3.63 0.66 7.26 1.32 11 2 C8.09907498 3.93395001 7.10325263 4.30131941 3.8125 4.625 C2.554375 4.74875 1.29625 4.8725 0 5 C0 3.35 0 1.7 0 0 Z " fill="#F09975" transform="translate(230,199)"/>
<path d="M0 0 C0.33 0 0.66 0 1 0 C1 4.62 1 9.24 1 14 C1.99 14 2.98 14 4 14 C4 15.32 4 16.64 4 18 C3.01 17.67 2.02 17.34 1 17 C1 16.34 1 15.68 1 15 C-0.32 14.67 -1.64 14.34 -3 14 C-2.01 14 -1.02 14 0 14 C0 9.38 0 4.76 0 0 Z " fill="#626278" transform="translate(153,273)"/>
<path d="M0 0 C4.62 0 9.24 0 14 0 C14 1.32 14 2.64 14 4 C13.0409375 3.7834375 13.0409375 3.7834375 12.0625 3.5625 C8.06155212 2.82763202 4.04495104 2.41418889 0 2 C0 1.34 0 0.68 0 0 Z " fill="#F4977A" transform="translate(283,231)"/>
<path d="M0 0 C2.31 0.33 4.62 0.66 7 1 C7 3.31 7 5.62 7 8 C6.67 6.68 6.34 5.36 6 4 C4.02 4 2.04 4 0 4 C0 2.68 0 1.36 0 0 Z " fill="#F18E76" transform="translate(232,176)"/>
<path d="M0 0 C2.31 0 4.62 0 7 0 C7 1.32 7 2.64 7 4 C4.69 4 2.38 4 0 4 C0 2.68 0 1.36 0 0 Z " fill="#F3CC2E" transform="translate(272,314)"/>
<path d="M0 0 C2.31 0 4.62 0 7 0 C7 1.32 7 2.64 7 4 C4.69 4 2.38 4 0 4 C0 2.68 0 1.36 0 0 Z " fill="#F3CB2D" transform="translate(237,314)"/>
<path d="M0 0 C1.32 0 2.64 0 4 0 C4 2.31 4 4.62 4 7 C2.68 7 1.36 7 0 7 C0 4.69 0 2.38 0 0 Z " fill="#565366" transform="translate(146,280)"/>
<path d="M0 0 C1.32 0 2.64 0 4 0 C4 2.31 4 4.62 4 7 C2.68 7 1.36 7 0 7 C0 4.69 0 2.38 0 0 Z " fill="#777386" transform="translate(136,280)"/>
<path d="M0 0 C1.32 0 2.64 0 4 0 C4 2.31 4 4.62 4 7 C2.68 7 1.36 7 0 7 C0 4.69 0 2.38 0 0 Z " fill="#6E6574" transform="translate(157,259)"/>
<path d="M0 0 C0.7425 0.0825 1.485 0.165 2.25 0.25 C2.25 1.9 2.25 3.55 2.25 5.25 C-0.72 4.92 -3.69 4.59 -6.75 4.25 C-3.42692308 0.31153846 -3.42692308 0.31153846 0 0 Z " fill="#F9C73F" transform="translate(240.75,196.75)"/>
<path d="M0 0 C0.99 0.33 1.98 0.66 3 1 C1.37660195 2.70884005 -0.29319053 4.37446717 -2 6 C-2.66 6 -3.32 6 -4 6 C-3.67 7.32 -3.34 8.64 -3 10 C-3.99 10.33 -4.98 10.66 -6 11 C-6.375 8.875 -6.375 8.875 -6 6 C-4.20659643 3.76086748 -2.16547337 1.87545461 0 0 Z " fill="#909BA8" transform="translate(279,225)"/>
<path d="M0 0 C1.48117801 0.28127421 2.95993249 0.57533732 4.4375 0.875 C5.67306641 1.11863281 5.67306641 1.11863281 6.93359375 1.3671875 C7.61550781 1.57601562 8.29742187 1.78484375 9 2 C9.33 2.66 9.66 3.32 10 4 C7.03 3.505 7.03 3.505 4 3 C4 3.66 4 4.32 4 5 C2.68 5 1.36 5 0 5 C0 3.35 0 1.7 0 0 Z " fill="#EC8063" transform="translate(240,187)"/>
<path d="M0 0 C2.97 0 5.94 0 9 0 C9 0.33 9 0.66 9 1 C6.36 1 3.72 1 1 1 C1 1.66 1 2.32 1 3 C3.31 3 5.62 3 8 3 C8 3.33 8 3.66 8 4 C5.69 4 3.38 4 1 4 C0.67 5.32 0.34 6.64 0 8 C0 6.68 0 5.36 0 4 C-0.66 3.67 -1.32 3.34 -2 3 C-1.34 3 -0.68 3 0 3 C0 2.01 0 1.02 0 0 Z " fill="#493E0D" transform="translate(271,310)"/>
<path d="M0 0 C1.125 3.75 1.125 3.75 0 6 C1.65 6 3.3 6 5 6 C5 6.33 5 6.66 5 7 C3.35 7 1.7 7 0 7 C-0.33 8.32 -0.66 9.64 -1 11 C-1 9.68 -1 8.36 -1 7 C-2.32 7 -3.64 7 -5 7 C-5 6.34 -5 5.68 -5 5 C-3.68 5 -2.36 5 -1 5 C-0.67 3.35 -0.34 1.7 0 0 Z " fill="#5E4F11" transform="translate(308,265)"/>
<path d="M0 0 C0.33 0 0.66 0 1 0 C1.33 2.97 1.66 5.94 2 9 C0.68 8.67 -0.64 8.34 -2 8 C-2 6.02 -2 4.04 -2 2 C-1.34 2 -0.68 2 0 2 C0 1.34 0 0.68 0 0 Z " fill="#70969A" transform="translate(219,201)"/>
<path d="M0 0 C0.33 0 0.66 0 1 0 C1 2.31 1 4.62 1 7 C0.34 7 -0.32 7 -1 7 C-1 7.99 -1 8.98 -1 10 C-1.66 10 -2.32 10 -3 10 C-2.67 7.36 -2.34 4.72 -2 2 C-1.34 2 -0.68 2 0 2 C0 1.34 0 0.68 0 0 Z " fill="#C7C8C7" transform="translate(247,203)"/>
<path d="M0 0 C1.65 0 3.3 0 5 0 C3.68 0.33 2.36 0.66 1 1 C1 2.98 1 4.96 1 7 C-0.32 7 -1.64 7 -3 7 C-3 5.68 -3 4.36 -3 3 C-2.01 3 -1.02 3 0 3 C0 2.01 0 1.02 0 0 Z " fill="#EBD164" transform="translate(274,181)"/>
<path d="M0 0 C0.33 0.66 0.66 1.32 1 2 C1.66 2 2.32 2 3 2 C3 3.98 3 5.96 3 8 C2.01 8 1.02 8 0 8 C0 6.35 0 4.7 0 3 C-0.66 2.67 -1.32 2.34 -2 2 C-1.34 2 -0.68 2 0 2 C0 1.34 0 0.68 0 0 Z " fill="#1A1605" transform="translate(353,316)"/>
<path d="M0 0 C2.31 0 4.62 0 7 0 C7 1.32 7 2.64 7 4 C4.69 4 2.38 4 0 4 C0.99 3.67 1.98 3.34 3 3 C3 2.34 3 1.68 3 1 C2.01 0.67 1.02 0.34 0 0 Z " fill="#6C6356" transform="translate(168,287)"/>
<path d="M0 0 C-0.99 1.485 -0.99 1.485 -2 3 C-5.125 3.1875 -5.125 3.1875 -8 3 C-8 2.01 -8 1.02 -8 0 C-2.25 -1.125 -2.25 -1.125 0 0 Z " fill="#41445B" transform="translate(148,288)"/>
<path d="M0 0 C0.66 0 1.32 0 2 0 C2.33 2.31 2.66 4.62 3 7 C1.68 7 0.36 7 -1 7 C-0.67 4.69 -0.34 2.38 0 0 Z " fill="#5F6179" transform="translate(158,273)"/>
<path d="M0 0 C0.99 0 1.98 0 3 0 C3 5.28 3 10.56 3 16 C2.67 16 2.34 16 2 16 C2 11.71 2 7.42 2 3 C1.34 3 0.68 3 0 3 C0 2.01 0 1.02 0 0 Z " fill="#454555" transform="translate(126,238)"/>
<path d="M0 0 C2.97 0.495 2.97 0.495 6 1 C6 1.99 6 2.98 6 4 C4.02 4 2.04 4 0 4 C0 2.68 0 1.36 0 0 Z " fill="#EE9075" transform="translate(239,220)"/>
<path d="M0 0 C2.64 0 5.28 0 8 0 C8 0.66 8 1.32 8 2 C6.02 2 4.04 2 2 2 C2 2.99 2 3.98 2 5 C1.34 5 0.68 5 0 5 C0 3.35 0 1.7 0 0 Z " fill="#DCC0B7" transform="translate(277,185)"/>
<path d="M0 0 C0.33 0 0.66 0 1 0 C1 2.97 1 5.94 1 9 C0.01 9 -0.98 9 -2 9 C-2 7.02 -2 5.04 -2 3 C-1.34 3 -0.68 3 0 3 C0 2.01 0 1.02 0 0 Z " fill="#1A1605" transform="translate(130,313)"/>
<path d="M0 0 C0.99 0 1.98 0 3 0 C3 2.31 3 4.62 3 7 C2.01 7 1.02 7 0 7 C0 4.69 0 2.38 0 0 Z " fill="#4A4A5D" transform="translate(175,280)"/>
<path d="M0 0 C0.99 0 1.98 0 3 0 C3 2.31 3 4.62 3 7 C2.01 7 1.02 7 0 7 C0 4.69 0 2.38 0 0 Z " fill="#F3AE9D" transform="translate(140,280)"/>
<path d="M0 0 C0.99 0 1.98 0 3 0 C3 2.31 3 4.62 3 7 C2.01 7 1.02 7 0 7 C0 4.69 0 2.38 0 0 Z " fill="#3F4157" transform="translate(161,273)"/>
<path d="M0 0 C0.99 0 1.98 0 3 0 C3 2.31 3 4.62 3 7 C2.01 7 1.02 7 0 7 C0 4.69 0 2.38 0 0 Z " fill="#46485C" transform="translate(129,263)"/>
<path d="M0 0 C0.99 0 1.98 0 3 0 C3 2.31 3 4.62 3 7 C2.01 7 1.02 7 0 7 C0 4.69 0 2.38 0 0 Z " fill="#45475D" transform="translate(168,263)"/>
<path d="M0 0 C0.99 0 1.98 0 3 0 C3 2.31 3 4.62 3 7 C2.01 7 1.02 7 0 7 C0 4.69 0 2.38 0 0 Z " fill="#5B586C" transform="translate(140,259)"/>
<path d="M0 0 C2.31 0 4.62 0 7 0 C7 0.99 7 1.98 7 3 C4.69 3 2.38 3 0 3 C0 2.01 0 1.02 0 0 Z " fill="#E3AE9B" transform="translate(129,256)"/>
<path d="M0 0 C0.99 0 1.98 0 3 0 C3 2.31 3 4.62 3 7 C2.01 7 1.02 7 0 7 C0 4.69 0 2.38 0 0 Z " fill="#45475C" transform="translate(168,231)"/>
<path d="M0 0 C1.32 0 2.64 0 4 0 C4 1.32 4 2.64 4 4 C2.02 4 0.04 4 -2 4 C-1.34 2.68 -0.68 1.36 0 0 Z " fill="#090801" transform="translate(260,267)"/>
<path d="M0 0 C1.65 0 3.3 0 5 0 C5 1.32 5 2.64 5 4 C3.35 4 1.7 4 0 4 C0 2.68 0 1.36 0 0 Z " fill="#060501" transform="translate(224,267)"/>
<path d="M0 0 C0.66 0 1.32 0 2 0 C2 0.99 2 1.98 2 3 C2.99 3 3.98 3 5 3 C5 4.32 5 5.64 5 7 C4.34 7 3.68 7 3 7 C3 6.01 3 5.02 3 4 C1.68 4 0.36 4 -1 4 C-0.67 2.68 -0.34 1.36 0 0 Z " fill="#F09E5D" transform="translate(277,232)"/>
<path d="M0 0 C1.32 0 2.64 0 4 0 C4 1.32 4 2.64 4 4 C2.35 4 0.7 4 -1 4 C-0.67 2.68 -0.34 1.36 0 0 Z " fill="#050401" transform="translate(359,295)"/>
<path d="M0 0 C2.31 0 4.62 0 7 0 C6.01 0.33 5.02 0.66 4 1 C4 1.99 4 2.98 4 4 C2.68 4 1.36 4 0 4 C0 2.68 0 1.36 0 0 Z " fill="#C39D8F" transform="translate(164,255)"/>
<path d="M0 0 C0 1.32 0 2.64 0 4 C-1.98 4 -3.96 4 -6 4 C-6 3.34 -6 2.68 -6 2 C-3 0 -3 0 0 0 Z " fill="#F3927B" transform="translate(299,222)"/>
<path d="M0 0 C0.99 0 1.98 0 3 0 C3 1.98 3 3.96 3 6 C2.01 6 1.02 6 0 6 C0 4.02 0 2.04 0 0 Z " fill="#0B0A02" transform="translate(244,313)"/>
<path d="M0 0 C1.98 0 3.96 0 6 0 C6 0.99 6 1.98 6 3 C4.02 3 2.04 3 0 3 C0 2.01 0 1.02 0 0 Z " fill="#3E3F50" transform="translate(158,301)"/>
<path d="M0 0 C1.98 0 3.96 0 6 0 C6 0.99 6 1.98 6 3 C4.02 3 2.04 3 0 3 C0 2.01 0 1.02 0 0 Z " fill="#3F4050" transform="translate(136,301)"/>
<path d="M0 0 C1.65 0 3.3 0 5 0 C4.67 1.32 4.34 2.64 4 4 C2.68 4 1.36 4 0 4 C0 2.68 0 1.36 0 0 Z " fill="#030200" transform="translate(238,267)"/>
<path d="M0 0 C1.98 0 3.96 0 6 0 C6 0.99 6 1.98 6 3 C4.02 3 2.04 3 0 3 C0 2.01 0 1.02 0 0 Z " fill="#575971" transform="translate(137,224)"/>
<path d="M0 0 C0.33 0.66 0.66 1.32 1 2 C1.66 2 2.32 2 3 2 C2.67 2.99 2.34 3.98 2 5 C-1.0625 6.1875 -1.0625 6.1875 -4 7 C-2.68 4.69 -1.36 2.38 0 0 Z " fill="#A29FA3" transform="translate(280,220)"/>
<path d="M0 0 C1.32 0.66 2.64 1.32 4 2 C0.17010894 3.80230168 -2.78121808 4.19622241 -7 4 C-6.1028125 3.566875 -6.1028125 3.566875 -5.1875 3.125 C-2.80672208 1.95257974 -2.80672208 1.95257974 0 0 Z " fill="#BE6259" transform="translate(261,191)"/>
<path d="M0 0 C0.598125 0.350625 1.19625 0.70125 1.8125 1.0625 C1.4825 1.7225 1.1525 2.3825 0.8125 3.0625 C0.1525 2.7325 -0.5075 2.4025 -1.1875 2.0625 C-1.1875 2.7225 -1.1875 3.3825 -1.1875 4.0625 C-1.8475 4.0625 -2.5075 4.0625 -3.1875 4.0625 C-3.8475 2.7425 -4.5075 1.4225 -5.1875 0.0625 C-2.1875 -0.9375 -2.1875 -0.9375 0 0 Z " fill="#768892" transform="translate(267.1875,184.9375)"/>
<path d="M0 0 C2.31 0.33 4.62 0.66 7 1 C7 1.66 7 2.32 7 3 C4.36 3.33 1.72 3.66 -1 4 C-0.67 2.68 -0.34 1.36 0 0 Z " fill="#567470" transform="translate(251,173)"/>
<path d="M0 0 C1.32 0 2.64 0 4 0 C3.67 1.32 3.34 2.64 3 4 C1.68 4 0.36 4 -1 4 C-0.67 2.68 -0.34 1.36 0 0 Z " fill="#020100" transform="translate(366,267)"/>
<path d="M0 0 C0.99 0 1.98 0 3 0 C2.67 1.98 2.34 3.96 2 6 C1.34 6 0.68 6 0 6 C-0.38218767 4.34385343 -0.71395102 2.67542976 -1 1 C-0.67 0.67 -0.34 0.34 0 0 Z " fill="#E7524B" transform="translate(264,212)"/>
<path d="M0 0 C0.66 0 1.32 0 2 0 C2 1.98 2 3.96 2 6 C1.01 6 0.02 6 -1 6 C-1.042721 4.33388095 -1.04063832 2.66617115 -1 1 C-0.67 0.67 -0.34 0.34 0 0 Z " fill="#F87269" transform="translate(263,202)"/>
</svg>
